<svg preserveAspectRatio="none" width="100%" height="100%" overflow="visible" style="display: block;" viewBox="0 0 385 90" fill="none" xmlns="http://www.w3.org/2000/svg">
<path id="logo-geenius" d="M368.539 21.3039C358.96 21.3039 350.278 27.0054 350.278 36.3029C350.278 42.3001 353.27 46.5053 358.358 49.2023L366.438 53.4015C370.634 55.5011 373.326 57.2991 373.326 60.901C373.326 64.7986 370.333 66.8982 366.143 66.8982C358.358 66.8982 352.668 61.8 352.072 52.7982H349.676V65.6975C352.969 68.0988 359.556 69.8968 365.842 69.8968C376.318 69.8968 385 63.2962 385 53.3955C385 46.7949 381.111 42.5957 375.12 39.5971L367.636 35.3979C364.644 33.8956 362.548 32.3993 362.548 29.3947C362.548 26.39 364.945 23.9948 368.533 23.9948C376.017 23.9948 379.015 29.3947 379.611 35.9952H382.008L382.309 24.2964C379.912 22.7941 374.223 21.2978 368.533 21.2978M326.327 69.0038H347.581V66.9042C343.39 66.9042 343.089 65.7036 343.089 60.6053V22.2029H321.83V24.3025C326.02 24.3025 326.321 25.5031 326.321 30.6013V58.5057C324.822 61.2087 323.028 62.4033 320.933 62.4033C317.043 62.4033 314.647 59.7064 314.647 52.5025V22.2029H293.394V24.3025C297.584 24.3025 297.885 25.5031 297.885 30.6013V54.6021C297.885 63.0006 302.973 69.9028 312.552 69.9028C318.837 69.9028 323.931 66.0052 326.321 61.5043V69.0038H326.327ZM272.736 30.6013V60.3037C272.736 65.4079 272.435 66.6025 268.245 66.6025V69.0038H294.291V66.9042C290.1 66.9042 289.799 65.7036 289.799 60.6053V22.2029H268.546V24.3025C272.435 24.6041 272.736 25.5031 272.736 30.6013ZM272.14 8.70014C272.14 13.4967 276.036 17.4003 281.123 17.4003C286.211 17.4003 290.106 13.4967 290.106 8.70014C290.106 3.60193 285.916 0 281.123 0C276.331 0 272.14 3.60193 272.14 8.70014ZM237.713 66.6025C233.523 66.6025 233.222 65.4019 233.222 60.3037V33.0026C234.42 30.004 236.816 28.8034 238.911 28.8034C242.801 28.8034 245.799 31.5003 245.799 38.7042V60.6053C245.799 65.7036 245.498 66.9042 241.308 66.9042V69.0038H267.354V66.9042C263.163 66.9042 262.862 65.7036 262.862 60.6053V36.6045C262.862 28.2061 257.473 21.3039 247.894 21.3039C241.308 21.3039 235.919 25.8048 233.523 30.3057V22.2029H212.263V24.3025C216.454 24.3025 216.755 25.5031 216.755 30.6013V60.3037C216.755 65.4079 216.46 66.6025 212.263 66.6025V69.0038H238.309V66.6025H237.713ZM211.366 57.6007L209.566 56.4001C206.574 60.2976 203.581 62.1016 199.09 62.1016C190.408 62.1016 183.52 53.4015 182.924 40.2004H210.469C210.469 31.1986 203.286 21.2978 191.01 21.2978C178.733 21.2978 167.059 32.3993 167.059 46.801C167.059 61.2027 177.836 69.9028 191.01 69.9028C199.391 69.9028 206.875 65.7036 211.366 57.6007ZM190.709 24.3025C195.2 24.3025 197.892 29.4007 197.892 37.2019H183.225C183.827 28.5017 186.518 24.3025 190.709 24.3025ZM166.457 57.6007L164.958 56.4001C161.966 60.2976 158.973 62.1016 154.482 62.1016C145.8 62.1016 138.912 53.4015 138.316 40.2004H165.861C165.861 31.1986 158.678 21.2978 146.402 21.2978C134.125 21.2978 122.451 32.3993 122.451 46.801C122.451 61.2027 133.228 69.9028 146.402 69.9028C154.783 69.9028 162.267 65.7036 166.463 57.6007M146.101 24.3025C150.592 24.3025 153.284 29.4007 153.284 37.2019H138.617C138.918 28.5017 141.609 24.3025 146.101 24.3025ZM107.176 75.3027C111.969 76.5033 113.763 77.704 113.763 80.7026C113.763 85.2035 107.176 87.3031 98.7953 87.3031C89.8123 87.3031 83.8276 84.0028 83.8276 77.704C83.8276 74.102 85.6218 71.7068 89.2162 71.1034L107.176 75.3027ZM124.841 72.6058C124.841 65.4079 119.754 61.5043 109.271 59.7064L94.6048 57.0034C93.1056 56.7078 91.9075 56.1044 91.9075 54.9038C91.9075 53.7032 92.5096 53.1059 94.8998 52.5025C96.098 52.5025 96.9951 52.7982 98.1932 52.7982C109.868 52.7982 119.152 46.1976 119.152 36.9002C119.152 33.3043 117.658 30.004 114.961 27.3011L124.245 27.6027L126.34 21.9012C120.952 22.5045 114.666 22.5045 106.279 22.5045C103.883 21.9012 100.891 21.3039 98.1932 21.3039C86.5189 21.3039 77.5359 27.9044 77.5359 36.9062C77.5359 44.4057 83.5205 50.4089 92.2025 52.2069C86.8139 53.7092 82.6234 57.3051 82.6234 62.4033C82.6234 66.0052 85.0197 69.0038 87.711 69.9028C79.9261 70.2045 73.9414 73.2031 73.9414 78.3013C73.9414 86.1024 86.2178 90 99.6864 90C111.963 90 124.835 83.1038 124.835 72.5997M104.184 36.9002C104.184 44.7013 101.487 50.1012 98.1932 50.1012C94.6048 50.1012 92.2085 44.7013 92.2085 36.9002C92.2085 29.099 94.6048 24.0008 98.1932 24.0008C101.487 24.0008 104.184 29.105 104.184 36.9002ZM0 56.7018C0 51.3019 3.88944 47.3983 9.27805 47.3983C14.6667 47.3983 18.5561 51.5975 18.5561 56.7018C18.5561 61.806 14.3656 65.9992 9.27805 65.9992C4.19048 65.9992 0 61.8 0 56.7018ZM4.49152 66.0052C4.49152 63.3083 6.58675 61.5043 8.98303 61.5043C11.3793 61.5043 13.4745 63.3083 13.4745 66.0052C13.4745 68.4065 11.3793 70.5061 8.98303 70.5061C6.58675 70.5061 4.49152 68.7022 4.49152 66.0052ZM23.0536 28.8034C23.0536 23.7052 27.2441 19.5059 32.3317 19.5059C37.7203 19.5059 41.6097 23.7052 41.6097 28.8034C41.6097 33.9016 37.4193 38.1008 32.3317 38.1008C27.2441 38.1008 23.0536 33.9016 23.0536 28.8034ZM27.5452 38.1008C27.5452 35.4039 29.6404 33.5999 32.0367 33.5999C34.433 33.5999 36.5282 35.3979 36.5282 38.1008C36.5282 40.5021 34.433 42.6017 32.0367 42.6017C29.6404 42.6017 27.5452 40.8038 27.5452 38.1008ZM23.0536 56.7018C23.0536 51.3019 27.2441 47.3983 32.3317 47.3983C37.7203 47.3983 41.6097 51.5975 41.6097 56.7018C41.6097 61.806 37.4193 65.9992 32.3317 65.9992C27.2441 65.9992 23.0536 61.8 23.0536 56.7018ZM27.5452 66.0052C27.5452 63.3083 29.6404 61.5043 32.0367 61.5043C34.433 61.5043 36.5282 63.3083 36.5282 66.0052C36.5282 68.4065 34.433 70.5061 32.0367 70.5061C29.6404 70.5061 27.5452 68.7022 27.5452 66.0052ZM46.1013 28.8034C46.1013 23.7052 50.2917 19.5059 55.3793 19.5059C60.7679 19.5059 64.6634 23.7052 64.6634 28.8034C64.6634 33.9016 60.4729 38.1008 55.3793 38.1008C50.2857 38.1008 46.1013 33.9016 46.1013 28.8034ZM50.5928 38.1008C50.5928 35.4039 52.688 33.3043 55.0843 33.5999C57.4806 33.5999 59.5758 35.3979 59.5758 38.1008C59.5758 40.5021 57.7756 42.6017 55.0843 42.6017C52.688 42.6017 50.5928 40.8038 50.5928 38.1008ZM0 28.8034C0 23.7052 3.88944 19.5059 9.27805 19.5059C14.6667 19.5059 18.5561 23.7052 18.5561 28.8034C18.5561 33.9016 14.3656 38.1008 9.27805 38.1008C4.19048 38.1008 0 33.9016 0 28.8034ZM4.49152 38.1008C4.49152 35.4039 6.58675 33.5999 8.98303 33.5999C11.3793 33.5999 13.4745 35.3979 13.4745 38.1008C13.4745 40.5021 11.3793 42.6017 8.98303 42.6017C6.58675 42.6017 4.49152 40.8038 4.49152 38.1008ZM46.1013 56.7018C46.1013 51.3019 50.2917 47.3983 55.3793 47.3983C60.7679 47.3983 64.6634 51.5975 64.6634 56.7018C64.6634 61.806 60.4729 65.9992 55.3793 65.9992C50.2857 65.9992 46.1013 61.8 46.1013 56.7018ZM50.5928 66.0052C50.5928 63.3083 52.688 61.2087 55.0843 61.5043C57.4806 61.5043 59.5758 63.3083 59.5758 66.0052C59.5758 68.4065 57.7756 70.5061 55.0843 70.5061C52.688 70.5061 50.5928 68.7022 50.5928 66.0052Z" fill="var(--fill-0, white)"/>
</svg>
