<svg preserveAspectRatio="none" width="100%" height="100%" overflow="visible" style="display: block;" viewBox="0 0 258.999 161.875" fill="none" xmlns="http://www.w3.org/2000/svg">
<g id="Group 6">
<path id="Union" d="M36.4219 28.3282H64.7501V36.4219H36.4219V64.7501H28.3282V36.4219H0V28.3282H28.3282V0H36.4219V28.3282Z" fill="var(--fill-0, black)"/>
<path id="Union_2" d="M36.4219 125.453H64.7501V133.547H36.4219V161.875H28.3282V133.547H0V125.453H28.3282V97.125H36.4219V125.453Z" fill="var(--fill-0, black)"/>
<path id="Union_3" d="M133.55 28.3282H161.879V36.4219H133.55V64.7501H125.457V36.4219H97.1285V28.3282H125.457V0H133.55V28.3282Z" fill="var(--fill-0, black)"/>
<path id="Union_4" d="M133.55 125.453H161.879V133.547H133.55V161.875H125.457V133.547H97.1285V125.453H125.457V97.125H133.55V125.453Z" fill="var(--fill-0, black)"/>
<path id="Union_5" d="M230.671 125.453H258.999V133.547H230.671V161.875H222.577V133.547H194.249V125.453H222.577V97.125H230.671V125.453Z" fill="var(--fill-0, black)"/>
</g>
</svg>
