<svg width="48.7483" height="40" overflow="visible" style="display: block;" viewBox="0 0 48.7483 40" fill="none" xmlns="http://www.w3.org/2000/svg">
<g id="Group 10">
<path id="Vector" d="M30.4163 40C27.2861 40 24.2171 38.9316 21.7751 36.9909C19.358 35.0694 17.6472 32.3764 16.9602 29.4069C16.7028 28.2909 16.764 27.3007 16.8604 26.3502C16.5509 26.9178 16.2278 27.5013 15.8911 28.0972C14.2642 30.9817 11.397 32.6358 8.02757 32.6358C7.18409 32.6358 6.31679 32.5304 5.44949 32.3231C3.22173 31.7895 1.66513 30.5863 0.823912 28.7487C0.0280398 27.013 -0.02978 24.968 0.00876656 23.3807C0.0745224 20.6254 0.572226 17.4407 3.85095 17.2277C4.49377 17.0894 5.00621 16.8051 5.54813 16.5048L5.59914 16.4765C5.75446 16.3915 5.91432 16.3032 6.07984 16.2182C6.62516 15.9361 7.24191 15.7933 7.91307 15.7933C8.16249 15.7933 8.42098 15.8137 8.68173 15.8534C8.69534 15.8557 8.71121 15.8579 8.72821 15.8613C8.86539 15.8477 9.30301 15.7106 9.49347 15.6517C10.1714 15.4421 11.0104 15.1816 11.9208 15.1816C12.3346 15.1816 12.7291 15.2371 13.0953 15.3481C13.1157 15.3549 13.135 15.3606 13.1543 15.3662L14.1134 14.9629C14.4671 11.9492 15.0102 7.9182 15.3072 5.7452C15.5271 4.12848 16.6869 2.80972 18.2617 2.38373C19.714 1.9906 22.0075 1.42299 24.6785 0.944882C24.7125 0.939217 24.7466 0.935818 24.7794 0.935818C25.0323 0.935818 25.2567 1.10803 25.3236 1.35388C25.3916 1.60199 25.2873 1.85804 25.0651 1.98833C24.5504 2.28856 24.0595 2.61032 23.6026 2.94794C22.9598 3.42265 22.3748 3.94381 21.9111 4.45817C22.495 4.00385 23.1151 3.56993 23.7534 3.1666C24.5266 2.67943 25.3452 2.21719 26.1841 1.7946C26.6489 1.56007 27.1183 1.33235 27.5797 1.12049C28.8767 0.520025 30.2553 0.172209 31.6747 0.0861043C32.6146 0.0283238 33.5408 0 34.4263 0C35.2459 0 36.0509 0.0249249 36.8184 0.0736419C38.3376 0.171076 39.6584 1.10463 40.2661 2.50949L41.9859 6.48388C43.1559 6.4431 44.2375 6.41024 45.0594 6.38985C45.1207 6.38872 45.1796 6.38758 45.2397 6.38758C46.7895 6.38758 47.9323 6.90761 48.4561 7.85249C48.9424 8.73053 48.8177 9.88047 48.1114 11.0089C47.413 12.1237 46.243 12.9542 43.9858 13.9172L44.0606 14.2752C45.073 14.5097 46.5253 15.4387 46.9992 18.7379C47.7679 24.0764 45.4936 26.1395 44.2341 26.8566C44.0606 30.3574 42.5811 33.6249 40.0507 36.0834C37.451 38.6087 34.0283 40 30.414 40H30.4163Z" fill="#111317"/>
<g id="Group">
<path id="Vector_2" d="M16.983 22.4523C16.618 23.1876 15.7597 24.8734 14.4118 27.2628C12.7372 30.23 9.45513 31.5363 5.84649 30.6707C2.76277 29.932 1.60298 27.8995 1.71068 23.421C1.81612 19.0194 3.15051 18.9583 4.03367 18.9186C5.50524 18.8518 7.45978 19.0818 8.42117 20.5557C9.1751 21.7102 9.21818 23.2148 9.05152 23.822C9.03225 23.8628 9.01751 23.9059 9.00731 23.95C8.98237 24.0078 8.95516 24.0497 8.92681 24.0724C8.68646 24.2299 8.38036 24.2729 8.12754 24.1868C7.93367 24.12 7.80216 23.9908 7.73754 23.8016C7.68652 23.6532 7.6185 23.4969 7.53687 23.336C7.52667 23.3122 7.51533 23.2884 7.50173 23.2657C7.06978 22.4478 6.27277 21.5108 5.23542 20.6169C4.97466 20.3926 4.58126 20.4209 4.35678 20.6815C4.13117 20.9421 4.16065 21.3352 4.42141 21.5606C5.04722 22.1011 5.58574 22.6698 5.9746 23.1898C5.24902 23.2986 4.76379 23.1774 4.74679 23.1717C4.41687 23.0799 4.07449 23.2714 3.97926 23.6C3.88402 23.9308 4.07562 24.2763 4.40667 24.3715C4.43388 24.3794 4.80007 24.4803 5.3828 24.4803C5.72519 24.4803 6.14353 24.444 6.61062 24.3341C6.81809 24.8247 7.20696 25.1884 7.72394 25.3662C8.13548 25.5067 8.58556 25.5113 9.00617 25.39C8.83612 26.3349 8.32141 26.9807 7.46885 27.316C7.14801 27.4418 6.99042 27.8032 7.11626 28.1238C7.21263 28.3686 7.44844 28.5192 7.69673 28.5192C7.77269 28.5192 7.84978 28.5045 7.9246 28.4762C8.99824 28.0547 9.73629 27.2628 10.0855 26.191C10.3508 26.3304 10.6433 26.4029 10.9528 26.4029C11.1704 26.4029 11.3949 26.3678 11.6228 26.2975C12.2736 26.0959 12.7588 25.4161 13.0252 24.3307C13.1306 23.8968 13.193 23.4255 13.2123 22.9496C14.3585 22.9032 15.6271 22.7265 16.983 22.4523Z" fill="#ffffff"/>
<path id="Vector_3" d="M11.9002 21.6613C12.1779 23.3506 11.6474 24.9832 11.2596 25.1032C10.9751 25.1905 10.7506 25.1644 10.5737 25.0217C10.3629 24.8517 10.2313 24.5209 10.2393 24.1992C10.3957 23.6927 10.4003 23.1228 10.3753 22.732C10.3084 21.6931 9.97966 20.6507 9.47062 19.8713C8.82894 18.889 7.8358 18.224 6.54449 17.8965C6.65219 17.8365 6.75876 17.7787 6.8642 17.7243C7.49795 17.398 8.34371 17.4094 9.31077 17.7572C10.7211 18.2647 11.5442 19.5053 11.9002 21.6613Z" fill="#ffffff"/>
<path id="Vector_4" d="M15.9646 19.4617C16.4827 19.916 16.7752 20.3567 16.748 20.6411C16.7299 20.8257 16.5553 20.9628 16.4113 21.0467C15.8478 21.3741 15.027 21.2925 14.5055 20.8575C14.3275 20.7091 14.12 20.5425 13.9035 20.3692C13.4239 19.9851 12.5328 19.2691 12.3979 19.0391C12.3911 19.0266 12.3832 19.0153 12.3764 19.004C11.9592 18.1656 11.4025 17.5221 10.7007 17.0666C11.3288 16.9001 12.0057 16.7913 12.6031 16.9726C13.8015 17.3351 14.2368 17.7747 14.9601 18.5021C15.2402 18.7853 15.5587 19.1059 15.9646 19.4617Z" fill="#ffffff"/>
<path id="Vector_5" d="M37.8617 8.31426L39.2244 11.6213C38.6655 11.8695 38.1122 12.1108 37.5669 12.3419L36.1554 8.91699C36.7076 8.72325 37.2767 8.52272 37.8617 8.31426Z" fill="#ffffff"/>
<path id="Vector_6" d="M40.4976 7.37051L41.8218 10.4272C41.289 10.6776 40.7663 10.9178 40.2471 11.1546L38.9195 7.93245C39.4308 7.75005 39.9557 7.56311 40.4976 7.37051Z" fill="#ffffff"/>
<path id="Vector_7" d="M34.9764 9.32207L36.4174 12.8184C28.1219 15.8762 21.3457 17.2221 15.7632 16.2841C15.8936 15.1636 16.0523 13.8867 16.2179 12.5974C24.1766 12.5974 28.6661 11.486 34.9764 9.32207Z" fill="#ffffff"/>
<path id="Vector_8" d="M45.3192 18.977C46.1196 24.5398 43.1277 25.5221 43.0064 25.5595L42.5529 25.6886V26.1588C42.5529 32.8523 37.1076 38.2984 30.4153 38.2984C27.6672 38.2984 24.9746 37.3603 22.8318 35.6586C20.7152 33.9762 19.2175 31.6185 18.6167 29.0218C18.3888 28.0384 18.4874 27.1241 18.5906 26.1554C18.7153 24.9884 18.8536 23.698 18.4398 22.1277C23.4939 20.92 29.5457 18.6088 35.169 16.6363C38.1563 15.5895 40.4805 14.7975 42.2899 14.1064L42.4441 14.8372C40.9203 15.4025 39.5383 17.2039 39.1812 19.2863C39.1234 19.6251 39.3513 19.9468 39.6914 20.0057C40.0304 20.0635 40.3524 19.8358 40.4113 19.4959C40.7287 17.639 42.1867 15.8988 43.4191 15.8988H43.4361C44.3521 15.9112 45.038 17.0329 45.3192 18.977ZM43.3851 21.7867C43.4293 21.5726 43.427 21.3256 43.376 21.1002C43.3272 20.8736 43.2411 20.673 43.1628 20.5031C43.0835 20.332 43.0189 20.1972 42.978 20.0816C42.9372 19.9661 42.918 19.8698 42.9112 19.7689C42.9044 19.6692 42.9191 19.5627 42.9384 19.454C42.952 19.3985 42.9644 19.3441 42.978 19.292C42.9962 19.2387 43.0121 19.1866 43.0268 19.1356C43.173 18.7244 43.2921 18.4185 43.1765 18.3188C43.122 18.2712 43.0211 18.2814 42.8817 18.3482C42.7434 18.4151 42.5699 18.5431 42.3851 18.747C42.3409 18.8014 42.2956 18.8592 42.2491 18.9204C42.206 18.9861 42.1618 19.0563 42.1198 19.1322C42.0405 19.2908 41.9679 19.4766 41.9362 19.6953C41.9067 19.9128 41.9237 20.1541 41.9815 20.3717C42.0371 20.5892 42.1244 20.7829 42.1992 20.9449C42.2751 21.1092 42.3341 21.2395 42.3681 21.3505C42.4033 21.4616 42.4169 21.5545 42.418 21.6553C42.4191 21.8558 42.3443 22.0892 42.2672 22.292C42.1039 22.6999 41.9792 23.0035 42.0915 23.1055C42.1448 23.1553 42.2457 23.1474 42.3862 23.0851C42.5268 23.0216 42.7026 22.8993 42.8942 22.7044C42.9406 22.6534 42.9871 22.5968 43.0347 22.5379C43.0835 22.4778 43.1266 22.4064 43.173 22.3351C43.2581 22.1821 43.3454 22.0054 43.3851 21.7867ZM37.077 28.3726C37.0748 28.2264 37.0623 28.0621 37.0079 27.8843C36.9591 27.7075 36.8684 27.5195 36.7381 27.3484C36.6077 27.1762 36.4376 27.0221 36.2494 26.9009C36.0612 26.7796 35.8572 26.6913 35.6497 26.6267C35.2336 26.4987 34.847 26.4681 34.5058 26.4669C34.1656 26.4692 33.8675 26.5043 33.6215 26.5519C33.1294 26.6482 32.8369 26.7887 32.8381 26.9349C32.8392 27.0821 33.1442 27.2056 33.6192 27.3008C33.889 27.3563 34.2133 27.4039 34.5568 27.4617C31.6284 28.785 31.6238 27.4141 29.5174 27.9375C29.5457 27.8911 29.5718 27.8469 29.5945 27.8061C29.6364 27.7268 29.6693 27.6577 29.692 27.5999C29.7385 27.4843 29.7487 27.4141 29.7192 27.3926C29.6897 27.371 29.6228 27.3982 29.5242 27.4685C29.4743 27.5047 29.4165 27.5501 29.3507 27.6067C29.2838 27.6622 29.2067 27.7245 29.124 27.7982C28.7873 28.0848 28.31 28.5063 27.6581 28.8847C27.3316 29.0716 26.9597 29.2393 26.5538 29.3458C26.1502 29.4545 25.7058 29.4863 25.2943 29.3911C24.8827 29.2948 24.5222 29.0512 24.3283 28.6887C24.2331 28.5051 24.1764 28.2955 24.1651 28.0667C24.1594 28.0146 24.1628 27.9432 24.164 27.8763L24.1674 27.6724C24.1764 27.5376 24.19 27.4016 24.2059 27.2645C24.2819 26.7173 24.4519 26.203 24.6583 25.6648C24.7569 25.3918 24.8657 25.1165 24.9428 24.8049C25.0211 24.4956 25.0596 24.1433 25.0029 23.8C24.9859 23.7161 24.9757 23.6289 24.9485 23.5496C24.9202 23.4703 24.8918 23.391 24.8646 23.3128C24.8351 23.2369 24.7943 23.1701 24.7592 23.0998L24.7047 22.9967L24.6367 22.8982C24.5902 22.8347 24.5506 22.7679 24.4973 22.7101C24.4429 22.6523 24.3896 22.5957 24.3374 22.539C24.2819 22.4858 24.2184 22.4404 24.1606 22.3917C24.1299 22.3691 24.1016 22.3441 24.0699 22.3226L23.9735 22.266C23.7218 22.1051 23.4508 22.028 23.1992 21.9748C22.9452 21.9317 22.706 21.9193 22.4838 21.9317C22.0382 21.9533 21.6607 22.045 21.3421 22.1481C21.2628 22.1731 21.1857 22.1969 21.112 22.224C21.0406 22.2524 20.9725 22.2796 20.9056 22.3056C20.7741 22.3577 20.6574 22.4132 20.5542 22.4654C20.3456 22.5673 20.1937 22.6648 20.095 22.7407C19.9964 22.8166 19.9522 22.8721 19.9669 22.9061C19.9805 22.9389 20.052 22.9503 20.1744 22.9389C20.2957 22.9287 20.4669 22.8948 20.6868 22.8562C20.7957 22.8347 20.9159 22.8109 21.0474 22.7905C21.1131 22.7792 21.1811 22.7679 21.2514 22.7554C21.3229 22.7452 21.3965 22.7361 21.4725 22.7259C21.57 22.7123 21.6732 22.701 21.7786 22.692C21.6766 22.88 21.6199 23.0964 21.6244 23.3264C21.6358 24.0107 22.206 24.5806 22.8908 24.5919C23.3817 24.5998 23.8114 24.3336 24.0358 23.9359C24.0404 23.9767 24.0427 24.0175 24.0427 24.0594C24.0427 24.2078 24.0154 24.3676 23.9644 24.5455C23.8998 24.7709 23.7955 25.0236 23.6889 25.2909C23.469 25.8257 23.2468 26.4511 23.1549 27.1207C23.1391 27.26 23.1255 27.3994 23.1153 27.5376C23.113 27.6294 23.1096 27.7789 23.1073 27.8707C23.1062 27.9534 23.1028 28.0327 23.1119 28.129C23.1255 28.3397 23.1652 28.5493 23.2298 28.7521C22.2106 29.4817 22.1924 30.4096 22.392 30.8152C22.5382 31.1143 22.9599 31.1268 23.1209 30.8356L23.172 30.7427C24.2116 31.6173 26.0301 31.2061 27.4245 30.1785C28.7351 31.5494 31.837 31.282 33.5342 30.3292C34.4411 29.8194 34.9468 28.7952 35.1917 28.1324C35.3005 27.8378 35.6633 27.7268 35.9138 27.916C35.9433 27.9375 35.9705 27.9602 35.9966 27.984C36.0748 28.0531 36.1406 28.1301 36.195 28.2185C36.2528 28.3023 36.2948 28.3986 36.3367 28.4893C36.4875 28.8699 36.5533 29.1951 36.7052 29.211C36.7777 29.22 36.8548 29.1543 36.9319 29.0161C36.9999 28.8767 37.0748 28.6637 37.077 28.3726ZM36.5136 34.5472C36.7437 34.3308 36.8492 34.1823 36.8095 34.1212C36.7698 34.06 36.5884 34.0906 36.2993 34.1948C36.2267 34.2209 36.1474 34.2515 36.0612 34.2866C35.9751 34.3194 35.881 34.3546 35.7812 34.3942C35.6803 34.435 35.5749 34.4781 35.4638 34.5256C35.3526 34.5732 35.2313 34.6151 35.1078 34.6661C34.118 35.0638 32.736 35.5555 31.1624 35.7549C30.3767 35.8501 29.6228 35.8625 28.9392 35.8093C28.5979 35.7855 28.2748 35.7402 27.9721 35.6937C27.6706 35.6405 27.3905 35.5849 27.1354 35.5226C26.114 35.2756 25.5086 34.9981 25.4235 35.1182C25.3351 35.2337 25.8419 35.7696 26.894 36.2319C27.1558 36.3474 27.4517 36.4528 27.7749 36.5502C28.0991 36.6397 28.4517 36.7247 28.8281 36.7791C29.5786 36.8946 30.4232 36.9116 31.2928 36.8063C32.1612 36.6964 32.9684 36.4766 33.6691 36.2081C34.3697 35.9407 34.9706 35.6337 35.4456 35.3346C35.5647 35.2598 35.6792 35.1918 35.7823 35.1193C35.8866 35.0468 35.983 34.9765 36.0726 34.9108C36.1621 34.844 36.2437 34.7817 36.3186 34.7216C36.3911 34.6593 36.4558 34.6015 36.5136 34.5472ZM36.5022 19.6749C36.5136 19.471 35.9864 19.2568 35.1202 19.0903C34.6872 19.0076 34.169 18.9374 33.5908 18.8909C33.3006 18.8671 32.9956 18.8501 32.6771 18.8411C32.3585 18.832 32.0342 18.8297 31.651 18.858C30.9085 18.9238 30.1999 19.1458 29.641 19.4483C29.0741 19.7451 28.6467 20.0907 28.3145 20.3864C27.9835 20.6855 27.7431 20.9449 27.5901 21.1477C27.4381 21.3517 27.3747 21.5035 27.4291 21.5919C27.4824 21.6791 27.6479 21.6916 27.9041 21.6326C28.1581 21.5749 28.4982 21.4412 28.8904 21.2622C29.2838 21.0866 29.7249 20.8668 30.2044 20.6934C30.684 20.5122 31.2066 20.3887 31.7803 20.3354C32.0581 20.315 32.3789 20.3037 32.6839 20.2935C32.99 20.281 33.2859 20.2686 33.5682 20.2572C34.135 20.2289 34.6497 20.1904 35.0828 20.1383C35.949 20.0363 36.492 19.88 36.5022 19.6749ZM35.6304 22.0337C35.6485 21.8898 35.2551 21.7052 34.5942 21.5409C33.9332 21.3789 33.0047 21.2282 31.9413 21.244C31.4096 21.2542 30.8926 21.3109 30.4289 21.4287C29.9641 21.5454 29.5639 21.7244 29.2589 21.9023C28.9528 22.079 28.7329 22.2535 28.5911 22.3929C28.4506 22.5322 28.3893 22.641 28.4222 22.7067C28.4551 22.7713 28.5787 22.7883 28.7737 22.7622C28.9675 22.7384 29.2317 22.6704 29.5435 22.5945C29.8552 22.5186 30.2124 22.437 30.616 22.3872C30.803 22.3634 31.0014 22.3464 31.2078 22.3328C31.1862 22.4268 31.1738 22.5231 31.1738 22.624C31.1738 23.3355 31.7508 23.9121 32.4628 23.9121C33.1748 23.9121 33.7518 23.3355 33.7518 22.624C33.7518 22.5118 33.7371 22.4042 33.7099 22.3C34.0047 22.3 34.2779 22.2966 34.5182 22.2864C35.1871 22.258 35.6123 22.1799 35.6304 22.0337ZM30.2668 32.3696C30.3575 32.2631 30.3915 32.1736 30.3597 32.1068C30.226 31.8167 29.1829 32.1555 28.039 32.1204C27.9665 32.1238 27.8984 32.109 27.8293 32.1056C27.7613 32.0966 27.691 32.1 27.6263 32.0864C27.496 32.0637 27.3667 32.0513 27.2488 32.0184C27.1264 31.998 27.0175 31.9584 26.9076 31.9323C26.8543 31.9153 26.8033 31.8983 26.7534 31.8825C26.7012 31.8677 26.6536 31.8507 26.6083 31.8326C26.2364 31.7023 25.9881 31.589 25.8702 31.6763C25.7523 31.759 25.8294 32.1 26.1933 32.4557C26.2375 32.5022 26.2863 32.5475 26.3418 32.5883C26.3951 32.6302 26.4518 32.6767 26.5142 32.7186C26.6411 32.7956 26.7783 32.8829 26.9348 32.9429C27.089 33.0154 27.2601 33.0607 27.4381 33.1072C27.5266 33.1321 27.6184 33.1378 27.7125 33.1525C27.8055 33.1627 27.9007 33.182 27.9959 33.1786C28.1864 33.1774 28.3757 33.1842 28.5503 33.1525C28.726 33.1276 28.8961 33.1026 29.048 33.0517C29.1251 33.0279 29.1988 33.0052 29.2714 32.9814C29.3428 32.9588 29.412 32.935 29.4754 32.9032C29.6024 32.8432 29.7192 32.7843 29.8235 32.7265C29.9289 32.6721 30.0128 32.6019 30.0865 32.5418C30.1602 32.4807 30.2203 32.4229 30.2668 32.3696Z" fill="#ffffff"/>
</g>
</g>
</svg>
