<svg width="256" height="30" viewBox="0 0 256 30" fill="none" xmlns="http://www.w3.org/2000/svg">
<g clip-path="url(#clip0_366_80)">
<path d="M21.3118 30C19.6965 30 18.4401 29.3884 17.1039 27.9526C15.7745 26.5167 14.8305 24.3164 14.2057 22.8606C14.0661 22.5349 13.9398 22.2358 13.8334 22.0164C13.8068 21.9566 13.7869 21.8967 13.7669 21.8303C13.7337 21.797 13.7137 21.7638 13.6805 21.7372C12.71 20.4675 12.3776 19.2178 12.6834 17.9149C12.7764 17.5227 12.9426 17.1571 13.0822 16.838C13.1421 16.7051 13.275 16.4126 13.3016 16.2996C13.2684 16.1932 13.2484 16.0802 13.2484 15.9672C13.2351 15.914 13.2218 15.8609 13.2152 15.8077C13.2152 15.7944 13.2152 15.7811 13.2152 15.7678H12.9825C12.597 15.7678 12.2114 15.7412 11.8458 15.6947C11.4802 16.0071 11.0082 16.7848 10.6758 17.6158C10.3102 18.5398 8.80791 20.6005 6.85356 21.3849C6.34835 21.591 5.78332 21.6907 5.17175 21.6907C3.55642 21.6907 2.04744 20.9661 1.56218 20.6204C-0.172812 19.3641 -0.119632 17.6424 0.119677 16.2796C0.146267 16.1467 0.166209 15.9938 0.192799 15.8276C0.285863 15.216 0.418813 14.3785 0.658121 13.6805C1.13009 12.2779 1.8879 11.9854 2.43964 11.9854C2.50612 11.9854 2.57924 11.9854 2.64571 11.9987L2.73213 12.012C2.73213 12.012 2.7986 11.9654 2.82519 11.9455C3.29052 11.6729 3.7226 11.5334 4.10815 11.5334C4.49371 11.5334 4.95903 11.5599 5.42435 11.6065H5.45094C5.55065 11.5267 5.66366 11.4735 5.78996 11.4403C6.54113 11.2342 7.1261 11.1279 7.54489 11.1279H7.55819C7.55819 11.1279 7.59807 11.1013 7.61802 11.088C8.10328 10.7888 8.59519 10.6293 9.04057 10.6293C9.48595 10.6293 9.82497 10.7755 10.0709 11.0481C10.616 10.5628 11.4137 10.0975 12.4574 9.66542C12.5172 8.70818 12.6236 7.72436 12.9626 6.97984C13.1088 6.65412 13.1022 6.16885 13.0955 5.61046C13.0756 4.35409 13.049 2.45957 15.3158 1.29626C16.3528 0.764464 17.7222 0.651457 18.6927 0.651457C18.9121 0.651457 19.1314 0.658104 19.3508 0.671399C19.4571 0.678047 19.5635 0.697989 19.6632 0.744521C20.3147 0.491918 20.9794 0.319084 21.6442 0.232667C22.7875 0.0864224 23.9575 0.00665283 25.0344 0.00665283C25.2471 0.00665283 25.4598 0.00665283 25.6659 0.0199478C27.5671 0.0797749 27.8662 0.352321 28.039 0.518507C28.0922 0.571687 28.1454 0.624867 28.1853 0.691341C28.2517 0.791053 28.3448 0.924002 29.6344 3.9353C29.7674 3.9353 29.9136 3.9353 30.0731 3.9353C30.3922 3.9353 30.6581 3.94195 30.8708 3.95525C31.4625 3.99513 32.1272 4.10149 32.5394 4.60005C32.9648 5.1119 32.8917 5.77665 32.8518 6.13561C32.7454 7.11279 32.6524 7.89719 32.1671 8.46887C32.3266 8.70153 32.4396 8.94084 32.5526 9.16021C32.8119 9.68536 32.9448 9.89143 33.2639 10.0111C33.4966 10.0975 33.6827 10.2703 33.7957 10.4897C33.9087 10.7091 33.9287 10.9617 33.8622 11.201C34.1214 11.6796 34.1746 12.2114 34.2212 12.6036C34.2544 12.9227 34.2943 13.2816 34.4139 13.388C34.6732 13.6273 34.7928 13.9863 34.7064 14.3319C34.6865 14.4117 34.6599 14.4848 34.62 14.5579C34.7131 15.0166 34.64 15.4753 34.5735 15.8409C34.5203 16.1533 34.4804 16.4791 34.5402 16.5256C34.8394 16.7516 34.9856 17.1372 34.8992 17.5094C34.8593 17.6889 34.7663 17.8551 34.64 17.988C34.507 18.121 34.3408 18.2074 34.1613 18.2473C34.0084 18.2805 33.8688 18.3005 33.7359 18.3138C33.9353 20.3213 33.7027 22.1959 33.0911 23.4855C31.9943 25.8055 27.6535 28.3248 24.9413 29.2555C23.419 29.774 22.3023 30.0067 21.3184 30.0067H21.3118V30Z" fill="black"/>
<path d="M10.4631 14.6975C10.1042 14.6975 9.81167 14.5247 9.59895 14.3053C9.62554 14.6909 9.59895 15.0831 9.45936 15.4487C9.06051 16.4857 8.51542 17.1305 8.26946 17.2369C8.21628 17.2635 8.13651 17.2768 8.04345 17.2768C7.9105 17.2768 7.75761 17.2502 7.61801 17.1903C7.81079 17.6756 8.01686 18.4068 7.93709 19.138C7.93044 19.2112 7.86397 19.2643 7.79084 19.2643H7.7709C7.69113 19.251 7.6313 19.1846 7.6446 19.1048C7.73766 18.2739 7.40529 17.4097 7.21251 16.9976C7.13939 17.1438 7.06627 17.29 6.99979 17.4429C6.88014 17.7221 6.53447 17.8551 6.21539 17.8551C6.14892 17.8551 6.08245 17.8484 6.02262 17.8351C5.73013 17.7753 5.52406 17.5958 5.45758 17.3366C5.33793 17.3565 5.19833 17.3432 5.07203 17.3033L3.74919 19.6432C3.74919 19.6432 3.69601 19.7031 3.66277 19.7097C3.62288 19.723 3.58965 19.7097 3.55641 19.6964C3.53647 19.6898 3.52317 19.6765 3.51652 19.6632C3.50323 19.6499 3.49658 19.63 3.48993 19.61C3.48993 19.5901 3.48993 19.5701 3.48993 19.5568C3.48993 19.5369 3.49658 19.5169 3.50988 19.5037L4.82607 17.177C4.50035 16.9643 4.23445 16.5655 4.01508 15.9871C3.66942 16.1068 3.24398 16.3993 3.23733 16.4059C3.21074 16.4192 3.18415 16.4325 3.15756 16.4325C3.11103 16.4325 3.0645 16.4126 3.03791 16.366C3.02461 16.3528 3.01796 16.3328 3.01796 16.3129C3.01796 16.2929 3.01796 16.273 3.01796 16.2597C3.01796 16.2464 3.03126 16.2265 3.03791 16.2065C3.0512 16.1932 3.0645 16.1799 3.07779 16.1666C3.09773 16.1533 3.53647 15.8542 3.91537 15.7212C3.89543 15.6814 3.87549 15.6348 3.8489 15.5949C3.62953 15.6681 3.40352 15.688 3.1908 15.688C2.45958 15.688 1.83472 15.3756 1.79483 15.3623C1.72171 15.329 1.69512 15.2426 1.72836 15.1695C1.76159 15.0964 1.84801 15.0698 1.92113 15.103C1.93443 15.103 2.83848 15.5551 3.67606 15.3423C3.65612 15.3224 3.64283 15.3025 3.62953 15.2759C3.58965 15.2227 3.54976 15.1695 3.50988 15.1163C2.87172 15.0698 2.18038 14.3186 2.15379 14.2854C2.1272 14.2588 2.11391 14.2189 2.11391 14.179C2.11391 14.1391 2.13385 14.1059 2.16044 14.0793C2.18703 14.0527 2.22692 14.0394 2.2668 14.0394C2.30669 14.0394 2.33992 14.0594 2.36651 14.086C2.5194 14.2522 2.93155 14.6311 3.31045 14.7773C3.26392 14.6709 3.22404 14.5579 3.19745 14.4183C3.18415 14.3386 3.23733 14.2655 3.31045 14.2522C3.39022 14.2389 3.46334 14.292 3.47664 14.3652C3.52982 14.6776 3.68936 14.877 3.85555 15.0897C3.91537 15.1695 3.9752 15.2426 4.02838 15.3224C4.10815 15.4421 4.18792 15.5816 4.2411 15.7412C4.52694 16.5788 4.87261 16.8779 5.10527 16.9843C5.31799 17.0773 5.47088 17.0308 5.53071 17.0042C5.67695 16.9377 5.67695 16.5056 5.67695 16.1666C5.67695 16.0204 5.67695 15.8675 5.6836 15.7212C5.71019 15.1894 5.2914 14.1059 5.05874 13.6472C4.8859 13.3016 3.74254 13.1088 2.90496 12.9891H2.89831C2.75871 12.9692 2.63241 12.9559 2.5194 12.9426C1.64859 12.8296 1.33616 14.7906 1.15668 15.9606C1.13009 16.1267 1.1035 16.2863 1.07691 16.4259C0.864187 17.6291 0.850892 18.8788 2.13385 19.8094C2.75871 20.2615 4.8992 21.0924 6.48794 20.4609C8.14981 19.7961 9.466 18.0013 9.77179 17.2369C10.1042 16.4059 10.6625 15.3689 11.2741 14.8837C10.8886 14.7972 10.6493 14.7042 10.5628 14.6709C10.5296 14.6709 10.4964 14.6709 10.4631 14.6709V14.6975Z" fill="#CFCFD3"/>
<path d="M29.8338 6.89341C29.7075 6.60092 29.5746 6.28184 29.435 5.95612C29.2688 6.04918 28.9564 6.22201 28.4512 6.45468C28.5841 6.66075 28.8301 7.05959 28.983 7.45844C29.302 7.24572 29.5879 7.05959 29.8272 6.89341" fill="black"/>
<path d="M21.6973 12.012C22.3488 11.6729 23.2395 11.1411 24.2101 10.5429C19.9956 12.012 17.2502 12.3909 15.5285 12.3909C14.2123 12.3909 13.501 12.1649 13.2019 12.0385C13.1487 12.2247 13.0689 12.3709 12.9692 12.4573C12.9426 12.4839 12.9094 12.4972 12.8695 12.4972C12.8296 12.4972 12.7897 12.4839 12.7631 12.4507C12.7365 12.4241 12.7232 12.3842 12.7232 12.3443C12.7232 12.3044 12.7432 12.2712 12.7698 12.2446C12.9958 12.0385 13.0556 11.2608 13.1021 10.4565C11.0082 11.2807 10.4697 11.992 10.3434 12.2114C10.4498 12.3244 10.5495 12.4706 10.6492 12.6368C10.6958 12.7166 10.7822 12.8296 10.8752 12.9492C11.1611 13.3082 11.5134 13.7669 11.4004 14.1591C11.3539 14.3186 11.2342 14.4516 11.0481 14.5446C11.9987 14.8039 14.5845 15.2094 18.5331 13.501C19.7031 12.9958 20.7467 12.4906 21.6973 12.0053" fill="#67676F"/>
<path d="M20.2881 15.6083C20.2016 15.6614 20.0487 15.7678 19.9224 15.8875C20.0886 15.8675 20.2748 15.8476 20.4077 15.8476C20.4609 15.8476 20.5274 15.8609 20.6271 15.8675C20.7467 15.8875 20.9129 15.9074 21.0857 15.9141C20.986 15.821 20.9196 15.688 20.9063 15.5551C20.6869 15.5617 20.4875 15.5817 20.2947 15.6083H20.2881ZM22.043 15.7678C22.156 15.7213 22.2624 15.6548 22.3687 15.575H22.1095C22.0962 15.6482 22.0762 15.7146 22.043 15.7745M19.7363 21.8635C20.2482 21.704 20.6005 21.4381 20.9129 21.2054C20.9794 21.1523 21.0525 21.1057 21.119 21.0525C20.7002 21.119 20.1684 21.2387 19.5037 21.4181C19.4438 21.4381 19.384 21.4514 19.3242 21.4647L19.4372 21.9367C19.5302 21.9167 19.63 21.8968 19.7297 21.8569L19.7363 21.8635ZM5.31797 13.5476C5.53734 13.9863 6.00266 15.1429 5.96942 15.7678C5.96277 15.9074 5.96277 16.0536 5.96277 16.1932C5.96277 16.6386 5.96277 17.0574 5.74341 17.2369C5.77664 17.4496 5.94948 17.5294 6.08907 17.5626C6.36162 17.6158 6.67405 17.5094 6.74717 17.33C6.83359 17.1305 6.92665 16.9378 7.02637 16.7516C7.25238 16.3063 7.48504 15.8476 7.61799 15.2028C7.844 14.1192 7.11943 13.1088 7.03301 12.9958C6.88677 12.7964 6.12896 12.6501 5.3645 12.5704C5.35121 12.5704 5.33791 12.5704 5.33126 12.5704C4.87924 12.5238 4.43386 12.4973 4.11478 12.4973C3.85553 12.4973 3.5431 12.6435 3.32373 12.7764C4.3142 12.9293 5.12519 13.1354 5.32462 13.5343" fill="#CFCFD3"/>
<path d="M22.4684 8.36249C27.0552 6.91335 28.8899 5.93617 29.322 5.69021C29.2023 5.41102 29.0826 5.12518 28.963 4.83934C28.963 4.83934 28.963 4.83269 28.963 4.82604C28.2052 3.05782 27.4673 1.34942 27.3809 1.21647C27.1682 1.01705 24.8216 0.791032 21.7771 1.18988C19.7961 1.44913 18.3536 2.45955 17.197 3.27718C16.5788 3.71592 16.0403 4.08817 15.5684 4.23442C15.5484 4.23442 15.5285 4.24107 15.5152 4.23442C15.4952 4.23442 15.4753 4.22777 15.462 4.22112C15.4487 4.21448 15.4288 4.20118 15.4155 4.18789C15.4022 4.17459 15.3955 4.15465 15.3889 4.14135C15.3623 4.06158 15.4088 3.98846 15.4819 3.96187C15.914 3.82892 16.4325 3.46331 17.0308 3.04452C17.6822 2.58585 18.4268 2.06735 19.3042 1.64856C18.4666 1.60867 16.8513 1.61532 15.7678 2.16706C14.0394 3.05782 14.0594 4.34743 14.0793 5.6038C14.0926 6.25525 14.0993 6.86681 13.86 7.39196C13.5808 8.01018 13.4943 8.92088 13.4412 9.7917C14.179 9.81829 17.7554 9.85817 22.4817 8.35584" fill="#67676F"/>
<path d="M25.3535 9.81828C25.9584 9.43272 26.5766 9.03388 27.1616 8.65497C27.0153 8.1963 26.6697 7.51825 26.5301 7.259C25.5196 7.6512 24.2167 8.10988 22.5549 8.64167C18.4467 9.94458 15.1895 10.0975 13.8866 10.0975C13.6739 10.0975 13.521 10.0975 13.4146 10.0908C13.4146 10.144 13.408 10.2038 13.4013 10.2637C13.3681 10.8486 13.3348 11.3605 13.2617 11.766C13.7935 11.9986 16.8713 13.0091 25.3468 9.83157" fill="black"/>
<path d="M9.19348 12.6102C9.19348 12.6102 9.22007 12.6966 9.24666 12.7697C9.31313 12.9559 9.41949 13.275 9.49926 13.6406C9.52585 13.707 9.93799 14.6576 10.8022 14.3452C10.9816 14.2787 11.088 14.1923 11.1212 14.0859C11.1944 13.8267 10.8819 13.4278 10.6493 13.1287C10.5429 12.9958 10.4565 12.8761 10.3967 12.783C10.1773 12.3975 9.91805 12.1981 9.69204 12.0186C9.56574 11.9189 9.44608 11.8258 9.35302 11.7194C9.21342 11.5533 8.70821 11.5666 8.12988 11.9255C8.64174 12.0718 9.127 12.331 9.19348 12.6169V12.6102Z" fill="#CFCFD3"/>
<path d="M7.26569 12.8296C7.67783 13.3814 8.08997 14.3452 7.89719 15.2626C7.78419 15.8077 7.61135 16.2198 7.42522 16.5987C7.45181 16.7117 7.51829 16.8048 7.63794 16.8713C7.85066 16.9909 8.10991 16.9909 8.16309 16.9643C8.26945 16.9178 8.78795 16.3993 9.2001 15.3357C9.53912 14.4649 9.13362 13.2949 8.98738 12.8562C8.96079 12.7698 8.94085 12.71 8.92755 12.6767C8.89431 12.5438 8.39575 12.2247 7.71107 12.1183C7.35875 12.0652 6.62753 12.2247 6.05585 12.3842C7.05961 12.5438 7.21251 12.7631 7.27233 12.8363M19.1513 21.9832L19.0383 21.5311C18.6661 21.6043 18.3271 21.6309 18.0346 21.6309C18.2274 21.8037 18.5797 22.0231 19.1513 21.9832ZM14.4117 15.349C14.5247 15.2094 14.6577 15.0698 14.8172 14.9302C14.5845 14.9701 14.3585 15.0033 14.1392 15.0233C14.1392 15.1762 14.1525 15.4354 14.179 15.688C14.2522 15.5617 14.3186 15.4554 14.4051 15.349H14.4117Z" fill="#CFCFD3"/>
<path d="M26.8026 7.15267C26.9489 7.42522 27.2546 8.03013 27.4142 8.49546C27.8862 8.18303 28.3382 7.89054 28.7437 7.61799C28.5908 7.20585 28.3182 6.76712 28.1919 6.57434C27.8197 6.74053 27.361 6.9333 26.8093 7.15267" fill="#67676F"/>
<path d="M30.6847 6.32172C30.8908 6.18877 31.4359 5.75004 31.2697 5.48414C31.2497 5.4509 31.2431 5.41102 31.2564 5.37778C31.263 5.3379 31.2896 5.31131 31.3229 5.29136C31.3561 5.27142 31.396 5.26477 31.4292 5.27807C31.4691 5.28472 31.4957 5.31131 31.5156 5.34454C31.848 5.89628 30.944 6.5012 30.8442 6.56768C30.8243 6.58097 30.0731 7.09283 28.9829 7.81075C28.511 8.12318 27.9792 8.46885 27.4208 8.84111C27.4208 8.84111 27.4075 8.84776 27.4009 8.8544C26.8026 9.2466 26.1777 9.64545 25.5529 10.0443C26.8956 9.39285 28.2185 8.84776 29.7009 8.50874C30.1662 8.40238 30.5252 8.31596 30.7977 8.22289C30.8176 8.2096 30.8376 8.20295 30.8642 8.20295C31.6153 7.92376 31.7217 7.50497 31.8812 6.03588C31.9211 5.65033 31.9211 5.39108 31.7882 5.23818C31.6486 5.072 31.3362 4.97893 30.8044 4.9457C30.3257 4.91246 29.6477 4.92575 29.302 4.93905C29.641 5.73674 29.9402 6.42808 30.0731 6.75381C30.452 6.5012 30.6714 6.34831 30.6847 6.34166V6.32172Z" fill="#67676F"/>
<path d="M16.2863 16.3594C16.16 16.2597 16.0802 16.1201 16.0603 15.9539C15.7346 15.9805 15.4288 16.0669 15.1562 16.1533C15.2958 16.2996 15.6149 16.5057 16.2863 16.3661V16.3594Z" fill="#CFCFD3"/>
<path d="M33.603 15.6681C33.6894 15.1363 33.7758 14.6377 33.4036 14.2987C33.3903 14.2854 33.377 14.2721 33.3703 14.2588C33.3703 14.2588 33.357 14.2256 33.357 14.2056C33.357 14.2056 33.357 14.1657 33.3637 14.1524C33.3637 14.1524 33.3703 14.1258 33.377 14.1192C33.377 14.1125 33.3836 14.1059 33.3903 14.0993C33.4036 14.086 33.4169 14.0727 33.4301 14.066C33.4301 14.066 33.4634 14.0527 33.4767 14.0527C33.4767 14.0527 33.5099 14.0527 33.5232 14.0594C33.5232 14.0594 33.5432 14.066 33.5498 14.0727C33.603 14.1059 33.6628 14.1059 33.716 14.0926C33.3238 13.7403 33.264 13.2085 33.2108 12.69C33.1377 12.0252 33.0712 11.4004 32.34 11.0946C32.3067 11.0813 32.2801 11.0547 32.2668 11.0148C32.2535 10.9816 32.2535 10.9417 32.2668 10.9085C32.2735 10.8885 32.2868 10.8752 32.3001 10.8619C32.3134 10.8486 32.3267 10.8353 32.3466 10.8287C32.3666 10.8221 32.3798 10.8154 32.3998 10.8154C32.4197 10.8154 32.4397 10.8154 32.453 10.8287C32.453 10.8287 32.6723 10.9151 32.8917 10.9085C32.1871 10.6426 31.9145 10.1041 31.6553 9.57898C31.4426 9.16019 31.2498 8.76134 30.831 8.48215C30.5451 8.58186 30.1928 8.67492 29.7475 8.77464C27.5272 9.29314 25.6659 10.2637 23.5121 11.3871C23.3127 11.4868 23.1133 11.5932 22.9072 11.6995C23.0003 11.7394 23.0933 11.7926 23.1997 11.8524C23.5786 12.0651 24.1503 12.3909 25.2006 12.5238C27.3743 12.803 27.7266 13.7004 27.7399 13.7403C27.7466 13.7602 27.7466 13.7735 27.7466 13.7935C27.7466 13.8134 27.7466 13.8334 27.7333 13.8466C27.7266 13.8666 27.7133 13.8799 27.7 13.8932C27.6867 13.9065 27.6668 13.9131 27.6535 13.9198C27.6336 13.9264 27.6203 13.9331 27.607 13.9331C27.5471 13.9331 27.494 13.8998 27.474 13.84C27.474 13.8334 27.1416 13.0622 25.1674 12.8096C24.0639 12.67 23.459 12.331 23.0601 12.0984C22.7942 11.9455 22.6546 11.879 22.5217 11.8923C22.289 12.0119 22.0497 12.1316 21.8037 12.2579C21.8037 12.2579 21.7971 12.2579 21.7904 12.2579C20.8399 12.7365 19.7896 13.2417 18.6196 13.7536C17.7421 14.1325 16.9311 14.4117 16.1866 14.6111C16.2199 14.6178 16.2531 14.631 16.2863 14.6377C16.4392 14.6842 16.5256 14.8438 16.4791 14.9967C16.4392 15.123 16.3196 15.2027 16.1933 15.2027H16.1733C15.9872 15.1961 15.8144 15.1894 15.6548 15.216C15.5019 15.2426 15.3623 15.2958 15.2161 15.3822C15.0699 15.4686 14.917 15.5949 14.7375 15.7212C14.5846 15.8209 14.4051 15.914 14.199 15.9273C14.2123 15.9738 14.219 16.0204 14.2323 16.0669C14.2323 16.0735 14.2323 16.0802 14.2323 16.0868C14.2589 16.0403 14.3054 16.0071 14.3586 16.0071C14.5248 16.0071 14.7441 15.9406 14.9901 15.8608C15.3092 15.7611 15.6615 15.6548 16.0603 15.6348C16.4791 15.6149 16.858 15.7013 17.2236 15.8941C17.0707 15.6149 16.8181 15.4753 16.8048 15.4686C16.7849 15.462 16.7716 15.4487 16.7583 15.4354C16.745 15.4221 16.7384 15.4022 16.7317 15.3889C16.7317 15.3689 16.7251 15.349 16.7317 15.3357C16.7317 15.3157 16.7384 15.2958 16.745 15.2825C16.7849 15.2094 16.8647 15.1828 16.9378 15.2227C17.1837 15.3556 17.5494 15.688 17.6092 16.1999C17.6092 16.2131 17.6092 16.2264 17.6092 16.2397C17.6225 16.4059 17.6092 16.5854 17.5361 16.7848C17.1439 17.9548 16.9777 18.799 17.0508 19.2244C17.0641 19.3042 17.0109 19.3773 16.9311 19.3906H16.9046C16.8713 19.3906 16.8381 19.3773 16.8115 19.3574C16.7849 19.3375 16.7716 19.3042 16.765 19.271C16.7517 19.2178 16.7517 19.158 16.745 19.0981C16.6652 19.2112 16.6187 19.3707 16.6785 19.5635C16.7384 19.7562 16.971 19.7828 17.33 19.8161C17.6424 19.8427 17.9881 19.8692 18.2473 20.082C18.3072 20.1285 18.3205 20.2216 18.2673 20.2814C18.2407 20.3146 18.1942 20.3346 18.1543 20.3346C18.121 20.3346 18.0878 20.3213 18.0612 20.3013C17.8684 20.1484 17.5826 20.1219 17.3034 20.1019C17.1505 20.0886 16.991 20.0753 16.8447 20.0354C16.8314 20.1152 16.8181 20.2149 16.7982 20.3279C16.8846 20.308 16.9777 20.3013 17.0707 20.308C17.1771 20.3213 17.2835 20.3412 17.3965 20.401L17.4164 20.4143C17.4895 20.4542 17.5095 20.5406 17.4696 20.6138C17.4563 20.6337 17.443 20.647 17.4297 20.6603C17.2901 20.76 17.1505 20.8331 17.0242 20.9195C16.8979 20.9993 16.7783 21.0724 16.6852 21.1522C16.5921 21.2386 16.519 21.345 16.4725 21.4779C16.4259 21.6109 16.4193 21.7771 16.406 21.9566C16.406 21.9765 16.3861 21.9964 16.3661 21.9964C16.3595 21.9964 16.3528 21.9964 16.3462 21.9898H16.3395C16.2531 21.9233 16.18 21.8435 16.1202 21.7571C16.0537 21.6641 16.0204 21.5577 16.0071 21.4381C15.9673 21.2054 16.047 20.9262 16.1999 20.7334C16.273 20.6337 16.3595 20.5539 16.4592 20.4808C16.5456 20.2548 16.5655 20.0155 16.5722 19.9025C16.4991 19.8427 16.4392 19.7629 16.406 19.6499C16.2531 19.1846 16.5456 18.8256 16.7583 18.6727C16.8115 18.1808 16.9777 17.516 17.2569 16.6918C17.3034 16.5522 17.3233 16.4192 17.3167 16.3062C17.2968 16.2929 17.2835 16.2796 17.2635 16.2663C17.2103 16.2929 17.1572 16.3195 17.104 16.3461C16.9112 16.4325 16.7317 16.499 16.5589 16.5522H16.5522C16.2664 16.6386 16.0204 16.6718 15.8144 16.6718C15.2028 16.6718 14.917 16.3727 14.8106 16.2131C14.6444 16.2597 14.4849 16.2929 14.3453 16.2929C14.3253 16.2929 14.3054 16.2929 14.2855 16.2796C14.2655 16.2663 14.2522 16.2597 14.2389 16.2464C14.2389 16.5256 14.0927 16.8513 13.9265 17.2169C13.7935 17.5094 13.6539 17.8085 13.5875 18.1143C13.4346 18.7525 13.3615 19.7562 14.4051 21.119C14.4782 21.1788 14.897 21.5045 15.2892 21.2253C15.3557 21.1788 15.4421 21.1921 15.4886 21.2586C15.5352 21.325 15.5219 21.4115 15.4554 21.458C15.2892 21.5776 15.1164 21.6242 14.9502 21.6242C14.8505 21.6242 14.7508 21.6042 14.6644 21.5776C14.7707 21.8103 14.897 22.1028 15.0499 22.4551C15.6482 23.8511 16.5522 25.9583 17.7754 27.2679C19.5968 29.2222 21.1855 29.4682 24.5757 28.3049C27.4541 27.3211 31.2764 24.9213 32.1605 23.0401C32.9449 21.3716 32.8651 18.8788 32.5527 17.2369C32.4596 17.1504 32.3798 17.0574 32.3001 16.9643C32.094 16.725 31.8746 16.479 31.4957 16.3328C31.2298 17.1106 30.8243 17.7288 30.1131 17.8484C30.1662 17.9415 30.2128 17.9947 30.2128 17.9947C30.2593 18.0611 30.246 18.1476 30.1795 18.1941C30.1662 18.2074 30.1463 18.214 30.1264 18.2207C30.1064 18.2273 30.0865 18.2207 30.0732 18.2207C30.0599 18.2207 30.0399 18.214 30.02 18.2007C30.0067 18.1874 29.9868 18.1808 29.9801 18.1609C29.9535 18.1276 29.322 17.2634 29.322 16.4126C29.322 15.8808 29.6012 15.5418 29.8339 15.2692C29.9801 15.0964 30.1064 14.9368 30.133 14.7706C30.1795 14.5114 30.1463 14.3053 30.0333 14.199C29.9402 14.1059 29.794 14.086 29.5879 14.1258H29.5347C29.5347 14.1258 29.5214 14.1258 29.5148 14.1258H29.5015C29.5015 14.1258 29.4882 14.1258 29.4882 14.1192C29.4882 14.1192 29.4816 14.1192 29.4749 14.1192C29.4749 14.1192 29.4683 14.1125 29.4616 14.1059C29.4616 14.1059 29.455 14.1059 29.4483 14.0993C29.4483 14.0993 29.4417 14.0926 29.4417 14.086C29.4417 14.0793 29.435 14.0793 29.4284 14.0727C29.4284 14.0727 29.4284 14.066 29.4217 14.0594C29.4217 14.0594 29.4217 14.0527 29.4151 14.0461C29.4151 14.0394 29.4151 14.0328 29.4084 14.0261V13.9862C29.4084 12.6767 30.1397 12.0252 30.1729 11.992C30.1995 11.9721 30.2394 11.9588 30.2726 11.9654C30.3058 11.9654 30.3457 11.9854 30.3657 12.0119C30.3923 12.0385 30.4056 12.0784 30.3989 12.1117C30.3989 12.1515 30.3856 12.1848 30.359 12.2114C30.359 12.2114 30.3457 12.218 30.3391 12.2313C30.5119 12.2845 30.7645 12.4108 30.9506 12.69C31.2431 13.1088 31.283 13.727 31.0703 14.518C31.0504 14.5845 30.9972 14.6244 30.9307 14.6244C30.9174 14.6244 30.9041 14.6244 30.8908 14.6244C30.8709 14.6244 30.8576 14.6111 30.8376 14.5978C30.8243 14.5845 30.811 14.5712 30.7978 14.5579C30.7911 14.5446 30.7845 14.5247 30.7778 14.5047C30.7778 14.4848 30.7778 14.4649 30.7778 14.4516C30.9706 13.7469 30.9373 13.2085 30.698 12.8628C30.4986 12.5703 30.2061 12.5039 30.1197 12.4839C29.9402 12.7432 29.7076 13.1952 29.6743 13.8334C29.9402 13.8134 30.1064 13.9131 30.1995 13.9995C30.379 14.179 30.4521 14.4715 30.379 14.8305C30.3391 15.0698 30.1795 15.2559 30.02 15.4553C29.8006 15.7212 29.5746 15.9938 29.5746 16.4192C29.5746 16.5256 29.5879 16.6319 29.6079 16.7449C29.7873 16.7117 30.1529 16.5921 30.3258 16.1068C30.3524 16.0337 30.4321 15.9938 30.5053 16.0204C30.5784 16.047 30.6183 16.1267 30.5917 16.1999C30.3989 16.7516 29.9801 16.9643 29.6743 17.0241C29.7408 17.2302 29.8272 17.423 29.9136 17.5825C31.0038 17.5028 31.3295 16.0204 31.6154 14.2521C31.8879 12.577 31.4027 12.0252 30.5385 11.6729C30.2327 11.5466 29.9535 11.5533 29.7009 11.6929C29.2688 11.9255 28.9298 12.5504 28.757 13.4079C28.7437 13.4877 28.6639 13.5409 28.5908 13.5209C28.5708 13.5209 28.5576 13.5076 28.5376 13.501C28.5243 13.4877 28.511 13.4744 28.4977 13.4611C28.4844 13.4478 28.4778 13.4279 28.4778 13.4079C28.4778 13.388 28.4778 13.368 28.4778 13.3547C28.6639 12.3975 29.0495 11.7195 29.5613 11.4403C29.887 11.2674 30.2593 11.2541 30.6449 11.407C31.7949 11.879 32.1538 12.7166 31.9012 14.2987C31.8082 14.877 31.7018 15.5019 31.5423 16.0669C31.9943 16.2331 32.2535 16.5256 32.4796 16.7848C32.8053 17.1571 33.0645 17.4562 33.8622 17.2834C33.3238 16.8712 33.4301 16.2331 33.5232 15.6614M14.6577 16.7715C14.6577 16.7715 14.6178 16.7117 14.6178 16.6718C14.6178 16.6319 14.6311 16.5987 14.6511 16.5721C14.6777 16.5455 14.7109 16.5256 14.7441 16.5256C14.7774 16.5256 14.8173 16.5256 14.8438 16.5522C14.8704 16.5788 15.5219 17.1238 16.5921 16.7915C16.6719 16.7649 16.745 16.8114 16.7716 16.8845C16.7982 16.9643 16.7517 17.0374 16.6785 17.064C16.3993 17.1504 16.1534 17.1837 15.9207 17.1837C15.143 17.1837 14.6777 16.7915 14.6511 16.7715H14.6577ZM26.3639 13.4877C26.3838 13.4079 26.4636 13.368 26.5367 13.388C26.5633 13.3946 27.2214 13.594 27.7399 14.3452C28.1388 14.9235 28.6506 14.9568 28.6573 14.9568C28.737 14.9568 28.7969 15.0299 28.7969 15.1097C28.7969 15.1894 28.7304 15.2493 28.6506 15.2493H28.644C28.644 15.2493 27.9792 15.2094 27.5006 14.518C27.0419 13.8533 26.4636 13.6805 26.457 13.6805C26.437 13.6805 26.4237 13.6672 26.4104 13.6539C26.3971 13.6406 26.3838 13.6273 26.3772 13.614C26.3705 13.6007 26.3639 13.5808 26.3572 13.5608C26.3572 13.5409 26.3572 13.5209 26.3572 13.5076M28.8434 15.5152C28.8567 15.5949 28.8102 15.6681 28.7304 15.6813C28.644 15.6946 28.5642 15.7079 28.4911 15.7079C27.6003 15.7079 27.0353 14.764 27.0153 14.7175C26.9954 14.6842 26.9888 14.6443 27.002 14.6111C27.0087 14.5712 27.0353 14.5446 27.0685 14.5247C27.135 14.4848 27.2214 14.5047 27.2679 14.5779C27.2746 14.5912 27.8596 15.5617 28.6839 15.4088C28.7636 15.3955 28.8368 15.442 28.85 15.5218M18.0745 14.7175C18.0479 14.5446 18.1543 14.3718 18.3138 14.312C18.7858 14.1391 19.291 14.0926 19.7763 14.1125C20.2615 14.1325 20.7268 14.2322 21.1722 14.3319C21.6243 14.4316 22.0563 14.5446 22.4951 14.631C22.9338 14.7175 23.3792 14.7706 23.8379 14.7706C23.8578 14.7706 23.8644 14.7839 23.8644 14.7972C23.8644 14.8105 23.8578 14.8238 23.8445 14.8238C23.4058 14.9767 22.9272 15.0365 22.4618 15.0498C21.9899 15.0631 21.5245 15.0299 21.0725 14.9967C20.6205 14.9634 20.1751 14.9435 19.7497 14.9302C19.3242 14.9302 18.9121 14.9568 18.4999 15.0233H18.4933C18.2872 15.0565 18.1011 14.9169 18.0679 14.7108M22.5482 21.1722C22.5017 21.0326 22.4286 20.9129 22.3289 20.8198C22.2292 20.7268 22.1095 20.6537 21.9766 20.5938C21.8569 20.5473 21.7107 20.5141 21.5511 20.4941C21.2387 20.4542 20.8997 20.4675 20.5607 20.4675C20.2216 20.4675 19.8693 20.4675 19.517 20.401H19.5104C19.4638 20.3944 19.4239 20.3678 19.3974 20.3279C19.3708 20.288 19.3575 20.2415 19.3641 20.2016C19.3774 20.1484 19.4106 20.1019 19.4572 20.0753C19.63 19.9889 19.8028 19.9357 19.9823 19.8958C20.1618 19.856 20.3413 19.8227 20.5208 19.8094C20.667 19.7961 20.8199 19.7961 20.9728 19.8028C20.7534 19.6366 20.5673 19.4505 20.4277 19.2976C20.4078 19.3507 20.3812 19.4106 20.3346 19.4571C20.195 19.61 19.9358 19.6632 19.5237 19.6366C18.8921 19.5967 18.6462 19.8161 18.6462 19.8161C18.6196 19.8427 18.5864 19.856 18.5465 19.856C18.5265 19.856 18.5066 19.856 18.4933 19.8427C18.4734 19.836 18.4601 19.8227 18.4468 19.8094C18.4202 19.7828 18.4069 19.7496 18.4069 19.7097C18.4069 19.6698 18.4202 19.6366 18.4468 19.61C18.48 19.5768 18.7858 19.2976 19.5436 19.3441C19.9291 19.3707 20.0687 19.3109 20.1219 19.251C20.1485 19.2244 20.1751 19.1713 20.1552 19.0117C20.082 18.5265 19.7696 18.2672 19.2112 18.2406C19.1315 18.2406 19.0716 18.1675 19.0716 18.0877C19.0716 18.0678 19.0716 18.0478 19.0849 18.0345C19.0916 18.0146 19.1049 18.0013 19.1182 17.988C19.1315 17.9747 19.1514 17.9681 19.1647 17.9614C19.1846 17.9614 19.2046 17.9548 19.2179 17.9548C19.8494 17.988 20.2549 18.2938 20.3945 18.8123C20.4809 18.9253 20.9794 19.5768 21.6243 19.8626H21.6309C21.8237 19.9025 22.0231 19.9623 22.2159 20.0687C22.3954 20.175 22.5615 20.3146 22.6878 20.4941C22.8141 20.6736 22.8873 20.8863 22.9006 21.0924C22.9139 21.3051 22.8806 21.5045 22.7876 21.6907C22.761 21.7438 22.6878 21.7704 22.6347 21.7372C22.6147 21.7239 22.5948 21.7106 22.5881 21.6907C22.5748 21.6707 22.5748 21.6441 22.5748 21.6242V21.6109C22.5948 21.4646 22.5748 21.2985 22.5283 21.1589L22.5482 21.1722ZM21.4847 16.7184C20.9728 16.7184 20.574 16.5854 20.5407 16.5721C20.5208 16.5721 20.5075 16.5588 20.4942 16.5455C20.4809 16.5322 20.4676 16.5189 20.4609 16.499C20.4543 16.479 20.4477 16.4657 20.4477 16.4458C20.4477 16.4259 20.4477 16.4059 20.4543 16.3926C20.4809 16.3195 20.5607 16.2796 20.6338 16.3062C20.6471 16.3062 21.9965 16.7582 22.8208 15.9406C22.8474 15.914 22.8873 15.9007 22.9205 15.9007C22.9537 15.9007 22.9936 15.914 23.0202 15.9406C23.0468 15.9672 23.0601 16.0071 23.0601 16.0403C23.0601 16.0735 23.0468 16.1134 23.0202 16.14C22.5549 16.6053 21.9766 16.725 21.4847 16.725M22.7809 15.5683C22.0896 16.3594 21.0326 16.2131 20.5806 16.1533C20.5008 16.14 20.4344 16.1334 20.4011 16.1334C20.1485 16.1334 19.6234 16.2198 19.6167 16.2198H19.5901C19.5901 16.2198 19.5436 16.2198 19.5237 16.1999C19.5037 16.1866 19.4838 16.1733 19.4705 16.1533C19.4572 16.1334 19.4505 16.1134 19.4505 16.0868C19.4505 16.0603 19.4505 16.0403 19.4638 16.0204C19.5037 15.934 19.5569 15.8542 19.63 15.7744C19.5968 15.7877 19.5835 15.801 19.5835 15.801C19.5635 15.8143 19.5369 15.8209 19.5104 15.8209C19.4638 15.8209 19.4106 15.7944 19.3841 15.7478C19.3641 15.7146 19.3575 15.6747 19.3708 15.6415C19.3774 15.6016 19.404 15.575 19.4372 15.555C19.4505 15.5484 19.6765 15.4154 20.2216 15.329C20.441 15.2958 20.687 15.2759 20.9396 15.2626C21.119 15.2559 21.2985 15.2559 21.4847 15.2626C21.704 15.2692 21.8901 15.2759 22.063 15.2759C23.0402 15.2958 23.3327 15.2493 23.5653 15.2227C23.6451 15.2094 23.7182 15.2626 23.7248 15.3423C23.7381 15.4221 23.685 15.4952 23.6052 15.5019C23.4324 15.5285 23.2329 15.555 22.7743 15.5683M17.8618 20.7201C17.9017 20.6537 17.9881 20.6271 18.0612 20.6736C18.0812 20.6869 18.4268 20.8797 18.8323 20.5141C18.8589 20.4875 18.8988 20.4742 18.9387 20.4742C18.9786 20.4742 19.0118 20.4941 19.0384 20.5207C19.065 20.5473 19.0783 20.5872 19.0783 20.6271C19.0783 20.6669 19.0583 20.7002 19.0317 20.7268C18.7725 20.9594 18.5265 21.0259 18.3338 21.0259C18.0944 21.0259 17.9349 20.9328 17.9216 20.9262C17.8884 20.9063 17.8684 20.873 17.8551 20.8398C17.8485 20.7999 17.8551 20.7667 17.8684 20.7334M16.9444 21.3915C16.9644 21.3117 17.0375 21.2652 17.1106 21.2785C17.1239 21.2785 18.1742 21.4912 19.4239 21.1456C20.8 20.7667 21.5844 20.647 22.1295 20.7401C22.2092 20.7534 22.2624 20.8265 22.2491 20.9063C22.2358 20.986 22.1627 21.0392 22.0829 21.0259C21.9965 21.0126 21.9167 21.006 21.8303 20.9993C21.5711 21.0658 21.3451 21.232 21.0792 21.4381C20.7468 21.6907 20.3745 21.9632 19.8161 22.1427C19.6566 22.1959 19.5037 22.2291 19.3641 22.249C19.3508 22.249 19.3375 22.249 19.3309 22.249C19.2245 22.2623 19.1182 22.2756 19.0251 22.2756C18.2075 22.2756 17.782 21.8037 17.6557 21.6308C17.3034 21.6109 17.0774 21.5644 17.0641 21.5644C17.0242 21.5577 16.9976 21.5311 16.971 21.5045C16.9511 21.4713 16.9444 21.4314 16.9511 21.3982M19.0251 23.4123C18.8921 23.4123 18.7725 23.3991 18.6462 23.3725C17.7554 23.173 17.4098 22.3155 17.3965 22.2823C17.3832 22.249 17.3832 22.2092 17.3965 22.1693C17.4098 22.136 17.443 22.1094 17.4762 22.0962C17.5494 22.0696 17.6358 22.1028 17.6624 22.1759C17.6624 22.1892 17.9748 22.9271 18.706 23.0933C19.4306 23.2528 20.328 22.834 21.3716 21.8568C21.3982 21.8303 21.4381 21.8236 21.4714 21.8236C21.5112 21.8236 21.5445 21.8435 21.5711 21.8701C21.5977 21.8967 21.611 21.93 21.611 21.9698C21.611 22.0097 21.5977 22.043 21.5711 22.0696C20.6138 22.967 19.7563 23.419 19.0184 23.419M20.3213 23.6982C20.3014 23.778 20.2216 23.8178 20.1485 23.7979C19.5768 23.6317 18.8589 23.9242 18.8523 23.9308C18.8323 23.9375 18.819 23.9441 18.7991 23.9441C18.7459 23.9441 18.6927 23.9109 18.6661 23.8577C18.6329 23.7846 18.6661 23.6982 18.7459 23.6716C18.7791 23.6583 19.5635 23.3392 20.2349 23.532C20.3147 23.5519 20.3546 23.6317 20.3346 23.7048L20.3213 23.6982ZM22.8009 26.8424C22.0165 27.2479 21.1456 27.4673 20.3081 27.4673C20.1552 27.4673 20.0023 27.4607 19.8494 27.4474C18.9985 27.3609 18.2606 26.9422 17.6557 26.191C17.1904 25.606 16.765 24.9147 16.4126 24.1303C16.3794 24.0572 16.4126 23.9707 16.4858 23.9375C16.5589 23.9043 16.6453 23.9375 16.6785 24.0106C17.0242 24.7684 17.4297 25.4398 17.8817 26.0115C18.4268 26.7028 19.0982 27.0884 19.876 27.1615C20.7933 27.2479 21.7904 27.0485 22.6679 26.5898C23.8977 25.9517 24.1636 24.9014 24.1636 24.8881C24.1835 24.8083 24.2566 24.7684 24.3364 24.7817C24.4162 24.8017 24.4561 24.8748 24.4428 24.9546C24.4295 25.0011 24.1436 26.1511 22.8009 26.8424ZM24.6356 25.6459C24.6356 25.6459 24.609 25.6725 24.589 25.6791C24.5691 25.6858 24.5558 25.6924 24.5358 25.6924C24.5093 25.6924 24.4827 25.6858 24.4561 25.6658C24.4295 25.6525 24.4162 25.626 24.4029 25.5994C24.3896 25.5728 24.3896 25.5462 24.3962 25.5129C24.3962 25.4864 24.4162 25.4598 24.4361 25.4398C24.4494 25.4265 24.7552 25.1074 24.7552 24.4626C24.7552 24.3829 24.8217 24.3164 24.9015 24.3164C24.9812 24.3164 25.0477 24.3829 25.0477 24.4626C25.0477 25.2338 24.6621 25.626 24.6488 25.6392M27.6203 18.2539C26.6896 20.2349 25.2405 20.5672 24.3829 20.5672C23.9642 20.5672 23.685 20.4875 23.6783 20.4875C23.6584 20.4875 23.6451 20.4742 23.6251 20.4609C23.6118 20.4476 23.5985 20.4343 23.5919 20.421C23.5853 20.401 23.5786 20.3878 23.572 20.3678C23.572 20.3479 23.572 20.3279 23.572 20.3146C23.572 20.2947 23.5853 20.2814 23.5985 20.2614C23.6118 20.2482 23.6251 20.2349 23.6384 20.2282C23.6584 20.2216 23.6717 20.2149 23.6916 20.2083C23.7116 20.2083 23.7315 20.2083 23.7448 20.2083C23.8379 20.2349 26.0648 20.8531 27.3411 18.1343C27.3743 18.0611 27.4607 18.0346 27.5338 18.0611C27.607 18.0944 27.6336 18.1808 27.607 18.2539M28.8168 16.1201C28.6573 16.2065 28.4977 16.2397 28.3515 16.2397C27.9792 16.2397 27.6934 16.0337 27.6734 16.0204C27.6402 16.0004 27.6203 15.9672 27.6136 15.9273C27.6136 15.8874 27.6136 15.8542 27.6402 15.8209C27.6867 15.7545 27.7798 15.7412 27.8396 15.7877C27.8596 15.801 28.2651 16.0868 28.6706 15.8675C28.7437 15.8276 28.8301 15.8542 28.8633 15.9207C28.9032 15.9938 28.8766 16.0802 28.8102 16.1134M28.9099 13.8334C28.9896 13.8201 29.0628 13.8799 29.0694 13.953C29.0827 14.0328 29.0229 14.1059 28.9498 14.1125C28.9032 14.1192 28.8633 14.1258 28.8168 14.1258C28.2784 14.1258 27.9792 13.6539 27.8995 13.388C27.8729 13.3082 27.9194 13.2351 27.9925 13.2085C28.0656 13.1819 28.1454 13.2284 28.172 13.3016C28.1787 13.3281 28.3714 13.8998 28.9099 13.8334Z" fill="#CFCFD3"/>
</g>
<path d="M41.7358 22V9.4H47.5138C50.3398 9.4 51.9418 11.236 51.9418 13.9C51.9418 16.6 50.3398 18.4 47.5138 18.4H44.7598V22H41.7358ZM44.7598 15.52H47.4058C48.1978 15.52 48.8818 14.89 48.8818 13.918C48.8818 12.91 48.1078 12.28 47.4058 12.28H44.7598V15.52ZM59.7625 22.288C55.6045 22.288 53.2465 19.912 53.2465 15.646C53.2465 11.362 55.6225 9.112 59.7625 9.112C63.9025 9.112 66.2785 11.362 66.2785 15.646C66.2785 19.912 63.9205 22.288 59.7625 22.288ZM59.7625 19.03C61.5805 19.03 63.2185 17.932 63.2185 15.628C63.2185 13.162 61.3645 12.352 59.7625 12.352C58.1425 12.352 56.3065 13.18 56.3065 15.628C56.3065 17.95 57.9625 19.03 59.7625 19.03ZM67.769 22V9.4H73.367C77.111 9.4 79.883 12.028 79.883 15.61C79.883 19.21 77.057 22 73.367 22H67.769ZM70.793 18.742H73.367C75.509 18.742 76.823 17.194 76.823 15.574C76.823 13.81 75.275 12.64 73.367 12.64H70.793V18.742ZM87.4585 22.288C83.6425 22.288 81.2485 19.912 81.2485 15.664C81.2485 11.362 83.7145 9.112 87.2245 9.112C90.2485 9.112 92.8945 10.732 93.0745 14.098H89.6905C89.6905 12.91 88.3405 12.352 87.3325 12.352C86.1445 12.352 84.4705 13.126 84.4705 15.592C84.4705 17.896 85.9105 19.03 87.4765 19.03C88.7365 19.03 89.8705 18.292 89.8705 16.87H93.1825C93.1285 20.668 90.6445 22.288 87.4585 22.288ZM93.8598 22L98.7378 9.4H101.546L106.316 22H103.112L102.41 20.02H97.8018L97.0638 22H93.8598ZM98.8638 17.14H101.384L100.16 13.648L98.8638 17.14ZM112.003 22.288C108.799 22.288 106.747 20.344 106.819 17.338H109.969C110.131 18.616 110.995 19.3 112.237 19.3C113.245 19.3 113.749 18.85 113.749 18.328C113.749 16.51 107.323 17.32 107.323 12.946C107.323 10.678 109.033 9.112 111.877 9.112C114.757 9.112 116.503 10.84 116.575 13.738H113.497C113.371 12.892 112.849 12.118 111.715 12.118C110.959 12.118 110.419 12.478 110.419 12.928C110.419 14.494 116.755 14.044 116.755 18.292C116.755 20.326 115.369 22.288 112.003 22.288ZM120.866 22V12.28H117.968V9.4H126.788V12.28H123.89V22H120.866ZM128.238 22V9.4H131.262V22H128.238ZM136.482 22V9.4H139.506V14.026L143.214 9.4H146.652L142.854 14.206L147.228 22H143.898L140.892 16.708L139.506 18.472V22H136.482ZM147.737 22L152.615 9.4H155.423L160.193 22H156.989L156.287 20.02H151.679L150.941 22H147.737ZM152.741 17.14H155.261L154.037 13.648L152.741 17.14ZM161.302 22V9.4H166.9C170.644 9.4 173.416 12.028 173.416 15.61C173.416 19.21 170.59 22 166.9 22H161.302ZM164.326 18.742H166.9C169.042 18.742 170.356 17.194 170.356 15.574C170.356 13.81 168.808 12.64 166.9 12.64H164.326V18.742ZM181.82 19.588C181.334 18.364 180.794 18.094 179.498 18.094H177.932V22H174.908V9.4H180.686C183.512 9.4 185.114 11.29 185.114 13.396C185.114 14.998 184.196 16.258 183.242 16.762C184.034 17.14 184.43 18.004 184.79 19.012L185.888 22H182.756L181.82 19.588ZM177.932 15.196H180.578C181.496 15.196 182.054 14.566 182.054 13.738C182.054 12.838 181.388 12.28 180.578 12.28H177.932V15.196ZM187.037 22V9.4H194.939V12.28H190.061V14.296H194.849V17.176H190.061V19.12H195.029V22H187.037ZM196.441 22V9.4H204.343V12.28H199.465V14.296H204.253V17.176H199.465V19.12H204.433V22H196.441ZM212.757 19.588C212.271 18.364 211.731 18.094 210.435 18.094H208.869V22H205.845V9.4H211.623C214.449 9.4 216.051 11.29 216.051 13.396C216.051 14.998 215.133 16.258 214.179 16.762C214.971 17.14 215.367 18.004 215.727 19.012L216.825 22H213.693L212.757 19.588ZM208.869 15.196H211.515C212.433 15.196 212.991 14.566 212.991 13.738C212.991 12.838 212.325 12.28 211.515 12.28H208.869V15.196ZM217.974 22V9.4H220.998V22H217.974ZM226.881 22.288C223.713 22.288 222.237 20.47 222.237 16.942H225.243C225.333 18.292 225.711 19.03 226.827 19.03C227.727 19.03 228.285 18.562 228.285 17.248V9.4H231.309V17.644C231.309 20.722 229.833 22.288 226.881 22.288ZM232.059 22L236.937 9.4H239.745L244.515 22H241.311L240.609 20.02H236.001L235.263 22H232.059ZM237.063 17.14H239.583L238.359 13.648L237.063 17.14ZM249.243 18.976C246.345 18.976 243.987 16.618 243.987 13.72C243.987 10.84 246.345 8.464 249.243 8.464C252.141 8.464 254.481 10.84 254.481 13.72C254.481 16.618 252.141 18.976 249.243 18.976ZM249.261 17.572C251.385 17.572 253.077 15.844 253.077 13.738C253.077 11.596 251.385 9.922 249.261 9.868C247.101 9.922 245.445 11.596 245.409 13.738C245.445 15.844 247.101 17.572 249.261 17.572ZM247.227 16.33V10.84H249.621C250.791 10.84 251.457 11.614 251.457 12.496C251.457 13.162 251.079 13.666 250.683 13.9C251.007 14.044 251.187 14.422 251.313 14.818L251.781 16.33H250.485L250.071 15.07C249.891 14.566 249.675 14.44 249.135 14.44H248.487V16.33H247.227ZM248.487 13.234H249.585C249.963 13.234 250.197 12.982 250.197 12.64C250.197 12.262 249.909 12.028 249.585 12.028H248.487V13.234Z" fill="#67676F"/>
<defs>
<clipPath id="clip0_366_80">
<rect width="34.9258" height="30" fill="white"/>
</clipPath>
</defs>
</svg>
