<svg width="80" height="80" viewBox="0 0 80 80" fill="none" xmlns="http://www.w3.org/2000/svg">
<rect width="80" height="80" fill="black"/>
<path d="M67.2191 29.1563C67.2191 29.1563 67.1709 28.9952 67.1387 28.9147L67.0904 28.8019L67.0583 28.7375L67.0261 28.6892L66.9618 28.5764C66.9135 28.4798 66.8492 28.3831 66.7848 28.2864C66.3667 27.6582 65.7716 27.1911 65.0639 26.9333C64.4849 26.7239 63.8737 26.6434 63.2625 26.6756C62.7478 26.6917 62.2492 26.7883 61.7506 26.9333C61.5094 26.9977 61.3003 27.0783 61.059 27.1749L60.7213 27.3199L60.4157 27.4649C60.2388 27.5454 60.094 27.626 59.901 27.7226L59.322 28.0448C57.6815 28.9791 56.1857 30.1712 54.9312 31.5726C54.2074 32.3781 53.5962 33.2802 53.0815 34.2306C52.9368 34.4722 52.8242 34.73 52.6955 34.9877C52.5669 35.2454 52.4704 35.5193 52.3739 35.7931C52.2774 36.067 52.1809 36.3569 52.1004 36.6308L52.0361 36.8402L52.0039 36.953C51.5053 37.0013 51.0067 37.1463 50.5403 37.3718C49.2375 38.0484 48.0795 38.9666 47.1145 40.0781C45.7474 41.544 44.5572 43.1548 43.3027 44.7174C42.9006 45.2007 42.9006 45.2168 42.5146 44.6852C41.1635 42.8488 39.9572 40.9318 38.8796 38.9343C38.6545 38.4994 38.7349 38.3544 39.1852 38.2578C40.681 37.9034 42.1125 37.2913 43.3992 36.4536C44.8467 35.5193 46.0851 34.3756 46.6802 32.6841C47.0662 31.7015 47.0502 30.6061 46.6641 29.6235C46.2621 28.6408 45.5061 27.8515 44.5411 27.4005C43.2866 26.8367 41.9034 26.595 40.5202 26.6917C38.944 26.7561 37.416 27.336 36.1776 28.3348C34.9391 29.3335 34.0545 30.6867 33.6364 32.217C33.0734 34.3433 33.3951 36.4053 34.1671 38.4189C34.4727 39.2243 34.4727 39.2243 33.6203 39.4659H33.5881C32.6713 39.2404 32.1084 38.6122 31.5937 37.7101C31.4972 37.549 31.4168 37.3718 31.3525 37.2107C31.1112 36.6308 30.9665 36.0187 30.9343 35.4065C30.9343 33.8279 31.1755 28.5442 31.1755 24.3237C31.2077 17.9124 27.7176 17.1875 22.9729 17.1875C19.3219 17.1875 15.2527 19.3944 15.2527 22.2779C15.2527 23.5182 15.8317 24.7747 17.4079 24.7747C19.1289 24.7747 20.1904 23.7116 20.1904 22.7128C20.1904 21.7141 19.6757 20.2321 19.6757 18.9434C20.1261 18.4118 20.882 17.6547 22.6994 17.6547C26.6721 17.6547 26.8169 21.7141 26.8169 22.6V26.0151C24.8064 27.0783 21.4932 27.8837 18.7589 28.9469C16.3625 29.849 14.0625 31.0572 14.0625 35.0038C14.0625 38.0806 16.3142 40.0942 19.6275 40.0942C20.9785 40.0942 22.3134 39.7881 23.5358 39.2243C24.7582 38.6444 25.8518 37.8228 26.7204 36.7758H26.8651C27.6371 38.9827 28.8273 39.9975 31.079 39.9975C31.5133 39.9975 31.9476 39.9975 32.3818 39.9331C30.7252 40.5936 29.2455 41.5279 28.1036 43.0099C25.9001 45.8933 26.656 50.0816 29.7441 51.8053C30.7091 52.353 31.7867 52.6912 32.8965 52.7718C34.0063 52.8523 35.1161 52.6912 36.1615 52.2885C37.8181 51.612 39.3139 50.5649 40.5041 49.2279C40.7614 48.9701 40.9223 48.9057 41.1635 49.2279C41.646 49.8078 42.1768 50.3394 42.7558 50.8065C44.1873 52.0147 45.7956 52.804 47.5648 52.7557C48.8194 52.804 50.0739 52.514 51.1837 51.9341C52.2934 51.3381 53.2424 50.4682 53.9179 49.4051C53.9822 49.3084 54.127 49.1473 54.0144 49.0346C53.9018 48.9379 53.7892 49.0829 53.6927 49.1473C51.7627 50.5166 49.72 50.5327 47.6613 49.5178C46.0208 48.7124 44.7663 47.4237 43.6082 46.0544C43.5761 46.0222 43.56 45.99 43.5439 45.9578C43.5278 45.9256 43.5117 45.8772 43.5117 45.8289C43.5117 45.7806 43.5117 45.7484 43.5439 45.7C43.56 45.6678 43.5761 45.6195 43.6082 45.6034C44.8949 43.9764 46.1334 42.3011 47.7257 40.9479C48.7711 40.0459 49.9131 39.3371 51.3767 39.4176C51.5375 39.4176 51.6501 39.482 51.7788 39.5143C51.827 40.1908 51.9557 40.8513 52.1809 41.4795C52.599 42.6555 53.0172 43.5254 53.3228 44.4758C53.8536 46.1511 54.4165 47.8103 54.7864 49.4695C54.2556 50.0816 53.7249 50.6776 53.1941 51.2737C51.2802 53.4322 49.527 55.7358 47.9669 58.1521C47.5809 58.7804 47.211 59.4247 46.8893 60.0852C46.5355 60.8101 46.2621 61.5672 46.069 62.3404C45.9565 62.8076 45.9243 63.2908 45.9404 63.7741C45.9404 64.0802 46.0047 64.3862 46.1012 64.6762C46.1334 64.7728 46.1655 64.8695 46.1977 64.95L46.246 65.0628C46.3103 65.2078 46.4068 65.3527 46.5194 65.4816C46.6641 65.6749 46.8571 65.8199 47.0662 65.9327C47.2432 66.0132 47.4362 66.0776 47.6292 66.0937C47.7578 66.0937 47.8865 66.0937 48.0152 66.0937C48.176 66.0776 48.3208 66.0454 48.4655 65.9971C48.562 65.9649 48.6585 65.9327 48.755 65.8843C48.9159 65.8038 49.0284 65.7394 49.141 65.6749C49.3501 65.5461 49.527 65.4172 49.6879 65.2883C50.0096 65.0467 50.283 64.7889 50.5564 64.5473C51.5697 63.5969 52.5186 62.5981 53.4032 61.5511C54.2717 60.5201 55.092 59.473 55.8479 58.3938C56.636 57.2822 57.3276 56.1063 57.8745 54.8659C58.2283 54.1088 58.4213 53.2873 58.4535 52.4496C58.4535 51.773 58.4052 51.1126 58.3248 50.4521C58.2766 50.0655 58.2283 49.7433 58.164 49.4212C58.9038 48.4869 59.6276 47.5364 60.3353 46.586C62.008 44.3469 60.3353 42.6233 58.3409 45.1201C58.0353 45.5067 57.7136 45.9094 57.4081 46.28C57.1185 45.2973 56.829 44.3469 56.5556 43.4448C56.2179 42.285 55.7193 41.1896 55.4458 40.3519C55.3815 40.1586 55.3654 39.9492 55.3333 39.7398C55.3654 39.5465 55.3976 39.3532 55.3815 39.1438C55.3654 38.9827 55.3011 38.8377 55.2528 38.6927C55.2528 38.6122 55.2528 38.5316 55.285 38.4672V38.3544C55.285 38.3544 55.285 38.2739 55.3172 38.2095L55.3976 37.839L55.478 37.5973C55.5263 37.404 55.5906 37.2268 55.671 37.0335C55.7353 36.8563 55.8158 36.663 55.9123 36.5019C55.9927 36.3247 56.0892 36.1475 56.1857 35.9864C56.5878 35.326 57.0864 34.7139 57.6493 34.1823C58.7269 33.1835 59.9493 32.362 61.2521 31.7015L61.7024 31.4921L62.201 31.2505L62.3297 31.186L62.4101 31.1538L62.5709 31.0894C62.6835 31.041 62.78 31.0088 62.8926 30.9766C63.0534 30.9283 63.2143 30.8961 63.3751 30.8639C63.3751 31.0088 63.3751 31.1538 63.359 31.2988C63.2303 31.9592 63.0213 32.6036 62.7318 33.2157C62.4905 33.7795 62.2653 34.2306 62.1045 34.5205L61.9437 34.8588L61.8954 34.9555C61.7024 35.1488 61.5898 35.4226 61.5737 35.6965C61.5737 35.9703 61.6541 36.2442 61.8311 36.4697C62.008 36.6791 62.2653 36.8241 62.5387 36.8724C62.8122 36.9208 63.1017 36.8563 63.3268 36.6952L63.5359 36.5503L63.6646 36.4536C63.745 36.3892 63.8737 36.3086 64.0345 36.1797C64.501 35.8254 64.9352 35.4226 65.3212 34.9877C66.0289 34.2306 66.5918 33.3446 66.9618 32.362C67.0904 32.0076 67.1869 31.6371 67.2513 31.2666L67.2995 30.9927C67.2995 30.88 67.2995 30.7833 67.3317 30.6867C67.3478 30.4611 67.3478 30.2195 67.3317 29.994C67.2995 29.704 67.2513 29.4141 67.1548 29.1402L67.2191 29.1563ZM26.656 36.0831C26.1253 36.8241 25.4015 37.404 24.5973 37.8067C23.7771 38.2095 22.8764 38.4028 21.9596 38.3867C21.5092 38.4028 21.0589 38.3222 20.6568 38.145C20.2386 37.9678 19.8848 37.694 19.5953 37.3557C19.0163 36.6469 18.6946 35.5998 18.6946 34.2628C18.6946 29.994 22.0561 28.1576 26.849 26.6756V26.8044L26.6721 36.0831H26.656ZM37.2069 30.6705C37.6734 28.8986 38.7027 27.6904 40.6328 27.4488C41.0992 27.3682 41.5656 27.4166 41.9999 27.6099C42.4341 27.8032 42.788 28.1093 43.0453 28.4959C43.5278 29.253 43.753 30.1551 43.7047 31.0572C43.7047 33.8118 42.3537 35.777 40.0859 37.1463C38.172 38.2739 38.5901 38.3061 37.8342 36.3892C37.1104 34.5528 36.7083 32.6519 37.223 30.6705H37.2069ZM39.8447 48.6641C38.751 49.6145 37.6412 50.4843 36.1776 50.7582C36.0811 50.7904 35.9685 50.8065 35.872 50.8226H35.3412C34.1671 50.8226 33.0413 50.3877 32.2049 49.5661C31.3686 48.7446 30.886 47.617 30.87 46.4571C30.7413 43.6059 31.8189 41.4151 34.2636 39.917H34.3762V39.8364C34.5692 39.7237 34.7461 39.6431 34.907 39.9975C36.3062 42.736 37.995 45.3134 39.9251 47.7136C40.2307 48.1164 40.2468 48.3419 39.8607 48.6641H39.8447ZM54.8507 53.545C54.3843 54.5921 53.8214 55.5747 53.178 56.509H53.162C52.4864 57.4917 51.7305 58.4904 50.9424 59.4569C50.6207 59.8435 50.2991 60.214 49.9774 60.5845C50.1382 60.2785 50.2991 59.9885 50.476 59.6825C51.7788 57.5078 53.2424 55.4458 54.8668 53.4967C54.8668 53.5128 54.8668 53.5289 54.8668 53.545H54.8507ZM63.3912 30.6705L63.3751 30.6544C63.359 30.6222 63.3429 30.59 63.3268 30.5578C63.3429 30.5739 63.3751 30.6061 63.3912 30.6222V30.59V30.5739C63.3912 30.5739 63.3912 30.5578 63.3912 30.5417C63.3912 30.5095 63.3912 30.5095 63.3912 30.5417C63.3912 30.5739 63.4073 30.6061 63.4073 30.6383C63.4073 30.6383 63.4073 30.6383 63.4073 30.6544L63.3912 30.6705ZM63.3912 30.6383V30.6061C63.3912 30.6061 63.3912 30.6061 63.3912 30.6222V30.6383Z" fill="white"/>
</svg>
