<svg width="80" height="80" viewBox="0 0 80 80" fill="none" xmlns="http://www.w3.org/2000/svg">
<rect width="80" height="80" fill="#E20613"/>
<path d="M17.6562 58.5938V56.8474C18.4781 56.7446 18.9917 56.5392 19.2999 56.1283C19.6081 55.7174 19.8135 55.101 19.8135 54.2792V25.7208C19.8135 25.1045 19.7108 24.6935 19.7108 24.3854C19.6081 24.1799 19.4026 23.8717 19.1972 23.6663C18.9917 23.4608 18.7863 23.3581 18.5808 23.2554C18.2726 23.1526 17.9644 23.0499 17.6562 23.0499V21.4062H37.5855L37.7909 32.1927H36.1473C35.4282 29.0081 34.5036 26.6454 33.2709 25.2072C32.0382 23.769 30.4972 23.0499 28.4427 23.0499C27.6209 23.0499 27.0045 23.2554 26.799 23.5635C26.4908 23.8717 26.3881 24.5908 26.3881 25.7208V38.2536C27.7236 38.1509 28.8536 37.5345 29.6754 36.4045C30.4972 35.2745 31.1136 33.7336 31.4218 31.5763H33.0654V47.6019H31.4218C31.2163 45.3419 30.7027 43.5955 29.7781 42.26C28.9563 40.9246 27.8263 40.2055 26.3881 40V54.3819C26.3881 55.2037 26.4908 55.8201 26.799 56.231C27.1072 56.5392 27.6209 56.7446 28.34 56.7446C30.1891 56.7446 31.73 55.9228 33.0654 54.1765C34.4009 52.5328 35.5309 49.9646 36.3527 46.4719H37.9964L37.7909 58.491H17.6562V58.5938Z" fill="white"/>
<path d="M41.2422 58.5938V56.8474C42.064 56.7446 42.5777 56.5392 42.8858 56.1283C43.194 55.7174 43.3995 55.101 43.3995 54.2792V25.7208C43.3995 25.1045 43.2967 24.6935 43.2967 24.3854C43.194 24.1799 42.9886 23.8717 42.7831 23.6663C42.5777 23.4608 42.3722 23.3581 42.1667 23.2554C41.8586 23.1526 41.5504 23.0499 41.2422 23.0499V21.4062H61.1714L61.3769 32.1927H59.7332C59.0141 29.0081 58.0896 26.6454 56.8568 25.2072C55.6241 23.769 54.0832 23.0499 52.0286 23.0499C51.2068 23.0499 50.5904 23.2554 50.385 23.5635C50.0768 23.8717 49.9741 24.5908 49.9741 25.7208V38.2536C51.3095 38.1509 52.4395 37.5345 53.2614 36.4045C54.0832 35.2745 54.6995 33.7336 55.0077 31.5763H56.6514V47.6019H55.0077C54.8023 45.3419 54.2886 43.5955 53.3641 42.26C52.5423 40.9246 51.4122 40.2055 49.9741 40V54.3819C49.9741 55.2037 50.0768 55.8201 50.385 56.231C50.6932 56.5392 51.2068 56.7446 51.9259 56.7446C53.775 56.7446 55.3159 55.9228 56.6514 54.1765C57.9868 52.5328 59.1168 49.9646 59.9387 46.4719H61.5823L61.3769 58.491H41.2422V58.5938Z" fill="white"/>
</svg>
