<svg width="80" height="80" viewBox="0 0 80 80" fill="none" xmlns="http://www.w3.org/2000/svg">
<rect width="80" height="80" fill="#F4F4F4"/>
<path d="M15.1562 48.9606C15.1562 52.8668 18.3732 56.0837 22.2794 56.0837C26.1857 56.0837 29.4026 52.8668 29.4026 48.9606C29.4026 45.0543 26.4155 41.8374 22.2794 41.8374C18.1434 41.8374 15.1562 44.8245 15.1562 48.9606Z" fill="#B7D334"/>
<path d="M18.6055 56.0849C18.6055 58.1529 20.2139 59.5316 22.0522 59.5316C23.8904 59.5316 25.4989 57.9231 25.4989 56.0849C25.4989 54.0169 23.8904 52.6382 22.0522 52.6382C20.2139 52.6382 18.6055 54.0169 18.6055 56.0849Z" fill="#B7D334"/>
<path d="M32.8516 27.5919C32.8516 31.4982 36.0685 34.7151 39.9747 34.7151C43.881 34.7151 47.0979 31.4982 47.0979 27.5919C47.0979 23.6857 44.1108 20.4688 39.9747 20.4688C36.0685 20.4688 32.8516 23.6857 32.8516 27.5919Z" fill="#AE228D"/>
<path d="M36.3008 34.7148C36.3008 36.7828 37.9092 38.1614 39.7475 38.1614C41.5857 38.1614 43.1942 36.553 43.1942 34.7148C43.1942 32.6467 41.5857 31.2681 39.7475 31.2681C37.9092 31.2681 36.3008 32.6467 36.3008 34.7148Z" fill="#AE228D"/>
<path d="M32.8516 48.9606C32.8516 52.8668 36.0685 56.0837 39.9747 56.0837C43.881 56.0837 47.0979 52.8668 47.0979 48.9606C47.0979 45.0543 44.1108 41.8374 39.9747 41.8374C36.0685 41.8374 32.8516 44.8245 32.8516 48.9606Z" fill="#0085CB"/>
<path d="M36.3008 56.0849C36.3008 58.1529 37.9092 59.5316 39.7475 59.5316C41.5857 59.5316 43.1942 57.9231 43.1942 56.0849C43.1942 54.0169 41.5857 52.6382 39.7475 52.6382C37.9092 52.6382 36.3008 54.0169 36.3008 56.0849Z" fill="#0085CB"/>
<path d="M50.5469 27.5919C50.5469 31.4982 53.7638 34.7151 57.6701 34.7151C61.5763 34.7151 64.7932 31.4982 64.7932 27.5919C64.7932 23.6857 61.8061 20.4688 57.6701 20.4688C53.7638 20.4688 50.5469 23.6857 50.5469 27.5919Z" fill="#FBB218"/>
<path d="M53.9844 34.7152C53.9844 36.7832 55.5928 38.1618 57.4311 38.1618C59.4991 38.1618 60.8778 36.5534 60.8778 34.7152C60.8778 32.6471 59.2693 31.2685 57.4311 31.2685C55.5928 31.0387 53.9844 32.6471 53.9844 34.7152Z" fill="#FBB218"/>
<path d="M15.1562 27.5919C15.1562 31.4982 18.3732 34.7151 22.2794 34.7151C26.1857 34.7151 29.4026 31.4982 29.4026 27.5919C29.4026 23.6857 26.4155 20.4688 22.2794 20.4688C18.1434 20.4688 15.1562 23.6857 15.1562 27.5919Z" fill="#00AAB7"/>
<path d="M18.6055 34.7148C18.6055 36.7828 20.2139 38.1614 22.0522 38.1614C23.8904 38.1614 25.4989 36.553 25.4989 34.7148C25.4989 32.6467 23.8904 31.2681 22.0522 31.2681C20.2139 31.2681 18.6055 32.6467 18.6055 34.7148Z" fill="#00AAB7"/>
<path d="M50.5469 48.9606C50.5469 52.8668 53.7638 56.0837 57.6701 56.0837C61.5763 56.0837 64.7932 52.8668 64.7932 48.9606C64.7932 45.0543 61.8061 41.8374 57.6701 41.8374C53.7638 41.8374 50.5469 44.8245 50.5469 48.9606Z" fill="#EC146C"/>
<path d="M53.9844 56.0843C53.9844 58.1523 55.5928 59.531 57.4311 59.531C59.4991 59.531 60.8778 57.9225 60.8778 56.0843C60.8778 54.0163 59.2693 52.6376 57.4311 52.6376C55.5928 52.4078 53.9844 54.0163 53.9844 56.0843Z" fill="#EC146C"/>
</svg>
