<svg width="80" height="80" viewBox="0 0 80 80" fill="none" xmlns="http://www.w3.org/2000/svg">
<rect width="80" height="80" fill="#F7752A"/>
<path d="M45.1826 66.9667C42.2808 66.9667 40.0175 65.8666 37.615 63.2809C35.2189 60.7015 33.5183 56.7375 32.3929 54.1201C32.1464 53.5385 31.9125 52.9948 31.7228 52.5965C31.6722 52.489 31.6343 52.3752 31.6027 52.2614C31.5458 52.2045 31.5015 52.1476 31.451 52.0907C29.6997 49.8021 29.1118 47.5514 29.6618 45.2059C29.8262 44.4978 30.1233 43.8466 30.3825 43.2713C30.49 43.0311 30.7302 42.5063 30.7808 42.2977C30.7245 42.1041 30.6906 41.9047 30.6796 41.7034C30.6502 41.6085 30.6291 41.5112 30.6164 41.4126C30.6164 41.3873 30.6164 41.362 30.6101 41.343H30.1928C29.4974 41.343 28.8083 41.2988 28.1445 41.2166C27.487 41.7793 26.6335 43.1828 26.0392 44.6685C25.3817 46.3312 22.6821 50.036 19.1544 51.4522C18.244 51.8188 17.2261 52.0022 16.1324 52.0022C13.2305 52.0022 10.5057 50.6998 9.63955 50.0739C6.52274 47.8232 6.61757 44.7254 7.04747 42.2787C7.09173 42.0385 7.12966 41.7666 7.18024 41.4695C7.35094 40.3694 7.59118 38.8648 8.01476 37.6003C8.86193 35.0778 10.2275 34.5467 11.2201 34.5467C11.3402 34.5467 11.4667 34.5531 11.5868 34.572L11.7385 34.591C11.7954 34.5467 11.8523 34.5088 11.9092 34.4772C12.75 33.9841 13.5277 33.7312 14.2231 33.7312C14.9185 33.7312 15.7531 33.7818 16.5939 33.864H16.6445C16.8278 33.7249 17.0301 33.6237 17.2514 33.5605C18.598 33.1938 19.6602 33.0041 20.4062 33.0041H20.4315C20.4694 32.9789 20.501 32.9536 20.5389 32.9283C21.4114 32.3909 22.2965 32.1001 23.0994 32.1001C23.9023 32.1001 24.5092 32.3593 24.9581 32.8587C25.938 31.9863 27.3795 31.1518 29.2508 30.3741C29.3583 28.6482 29.5543 26.878 30.1612 25.544C30.4268 24.9561 30.4141 24.0836 30.4015 23.0784C30.3635 20.8214 30.313 17.4074 34.3971 15.3085C36.2621 14.3475 38.7277 14.1515 40.4727 14.1515C40.8646 14.1515 41.2629 14.1641 41.6549 14.1831C41.8509 14.1958 42.0405 14.2337 42.2176 14.3096C43.3872 13.8544 44.5884 13.5446 45.7833 13.3865C47.8379 13.121 49.9432 12.9756 51.8841 12.9756C52.2698 12.9756 52.6554 12.9756 53.0221 12.9946C56.4487 13.102 56.9798 13.5952 57.2959 13.8923C57.397 13.9871 57.4855 14.0883 57.5614 14.2021C57.6815 14.3791 57.8459 14.6257 60.1661 20.0437C60.4064 20.0437 60.6719 20.0374 60.9501 20.0374C61.5191 20.0374 62.0059 20.0501 62.3915 20.0754C63.46 20.1449 64.6485 20.3409 65.3945 21.2323C66.1658 22.1553 66.0331 23.3502 65.9572 23.9951C65.7612 25.7526 65.6032 27.1688 64.7307 28.193C65.0152 28.6166 65.2238 29.0465 65.4198 29.4321C65.8877 30.3741 66.1216 30.7535 66.6969 30.9684C67.1118 31.1259 67.4522 31.4339 67.6502 31.8311C67.8482 32.2283 67.8893 32.6855 67.7653 33.1116C68.2269 33.9778 68.328 34.9261 68.4102 35.6342C68.4734 36.2095 68.543 36.8543 68.7579 37.0503C69.2258 37.4802 69.4344 38.1251 69.289 38.7446C69.2574 38.8901 69.2068 39.0228 69.1373 39.1493C69.308 39.9775 69.1689 40.7993 69.0551 41.4632C68.9602 42.0258 68.8844 42.6075 68.9982 42.696C69.5355 43.1069 69.7948 43.8024 69.6493 44.4662C69.577 44.7924 69.4131 45.0913 69.1768 45.3276C68.9405 45.5639 68.6416 45.7278 68.3154 45.8002C68.0435 45.8634 67.7906 45.9013 67.5504 45.9203C67.9044 49.5302 67.4935 52.9063 66.3934 55.2265C64.4209 59.4054 56.6068 63.9384 51.7197 65.6074C48.9823 66.5431 46.9718 66.9604 45.1953 66.9604L45.1826 66.9667Z" fill="#121C57"/>
<path d="M25.6584 39.4274C25.0072 39.4274 24.4888 39.1113 24.1031 38.7193C24.1537 39.4084 24.1031 40.1228 23.8502 40.774C23.1295 42.639 22.1496 43.796 21.7134 43.992C21.6185 44.0362 21.4731 44.0615 21.3087 44.0615C21.0748 44.0615 20.7966 44.011 20.5374 43.9098C20.8852 44.7886 21.2582 46.1036 21.1128 47.4123C21.1001 47.545 20.9863 47.6399 20.8535 47.6399H20.8219C20.6828 47.6209 20.5754 47.4945 20.5943 47.3554C20.7587 45.8633 20.1581 44.3081 19.8167 43.5621C19.6839 43.8276 19.5512 44.0931 19.4374 44.365C19.2224 44.8644 18.5965 45.111 18.0275 45.111C17.9074 45.111 17.7873 45.0984 17.6798 45.0794C17.1488 44.9719 16.7884 44.6495 16.6683 44.188C16.447 44.2196 16.2068 44.2006 15.9728 44.1248L13.5894 48.3353C13.5549 48.3947 13.4988 48.4384 13.4328 48.4572C13.3668 48.4761 13.296 48.4686 13.2354 48.4365C13.2053 48.4201 13.1788 48.3977 13.1576 48.3708C13.1364 48.3439 13.1209 48.3129 13.112 48.2798C13.1031 48.2467 13.1011 48.2121 13.106 48.1782C13.1109 48.1442 13.1226 48.1117 13.1405 48.0824L15.5113 43.8972C14.9297 43.5178 14.4429 42.7971 14.0572 41.7539C13.4377 41.9752 12.6664 42.5 12.66 42.5063C12.6174 42.536 12.5666 42.5515 12.5146 42.5505C12.4324 42.5505 12.3503 42.5126 12.2997 42.4367C12.2802 42.4086 12.2666 42.3769 12.2595 42.3435C12.2525 42.31 12.2522 42.2755 12.2586 42.2419C12.2651 42.2084 12.2782 42.1764 12.2972 42.148C12.3162 42.1196 12.3407 42.0952 12.3692 42.0764C12.4072 42.0511 13.1911 41.52 13.8739 41.2735C13.836 41.1976 13.798 41.1217 13.7538 41.0459C13.3555 41.1723 12.9509 41.2166 12.5652 41.2166C11.2502 41.2166 10.1185 40.6602 10.0553 40.6286C9.92888 40.5654 9.8783 40.4073 9.94152 40.2809C10.0047 40.1544 10.1628 40.1039 10.2892 40.1671C10.3082 40.1734 11.9393 40.9826 13.4503 40.597C13.4187 40.5591 13.3934 40.5211 13.3618 40.4832C13.2923 40.3884 13.2164 40.2935 13.1468 40.1987C12.0025 40.1165 10.7571 38.7636 10.7002 38.7067C10.6541 38.6555 10.6302 38.5882 10.6337 38.5194C10.6373 38.4506 10.668 38.3861 10.7191 38.34C10.7703 38.2939 10.8376 38.27 10.9064 38.2735C10.9752 38.2771 11.0397 38.3078 11.0858 38.359C11.364 38.6624 12.1037 39.3452 12.7865 39.5981C12.698 39.4084 12.6284 39.1998 12.5779 38.9532C12.5526 38.8142 12.6474 38.6814 12.7865 38.6498C12.9256 38.6245 13.0647 38.7193 13.0899 38.8584C13.1911 39.4148 13.4756 39.7814 13.7727 40.1671C13.8802 40.3062 13.9877 40.4453 14.0825 40.5907C14.2279 40.8119 14.367 41.0522 14.4682 41.3493C14.9803 42.854 15.5998 43.3977 16.0234 43.5874C16.4028 43.7581 16.6872 43.6696 16.7884 43.6253C17.0539 43.5115 17.0539 42.7339 17.0476 42.1143C17.0476 41.8488 17.0476 41.5769 17.0603 41.3177C17.1108 40.3568 16.3522 38.4095 15.9412 37.5813C15.6315 36.9618 13.5704 36.6077 12.0594 36.3991H12.0468C11.8002 36.3675 11.5726 36.3359 11.364 36.3106C9.80243 36.1083 9.23976 39.636 8.91101 41.7413C8.86044 42.0448 8.81618 42.3293 8.77193 42.5758C8.3926 44.7443 8.36099 46.9887 10.6686 48.6704C11.7939 49.4859 15.6441 50.9843 18.5017 49.84C21.4984 48.6388 23.8629 45.4145 24.4129 44.0362C25.0072 42.5442 26.0187 40.6792 27.1125 39.8067C26.4234 39.6487 25.9934 39.4843 25.8354 39.4211C25.7785 39.4211 25.7153 39.4274 25.6584 39.4274Z" fill="white"/>
<path d="M60.5198 25.3858C60.2922 24.8547 60.0519 24.2857 59.8054 23.7041C59.5082 23.8748 58.9455 24.1783 58.0352 24.5955C58.2754 24.9685 58.7179 25.6829 58.9961 26.3973C59.5714 26.018 60.0835 25.6766 60.5198 25.3795" fill="#121C57"/>
<path d="M45.877 34.5971C47.0466 33.9839 48.6524 33.0356 50.3973 31.9482C42.8171 34.5908 37.8668 35.2799 34.769 35.2799C32.3982 35.2799 31.1211 34.8753 30.5774 34.6477C30.4762 34.9828 30.3435 35.242 30.1601 35.4064C30.1114 35.4501 30.0486 35.4748 29.9831 35.4759C29.9136 35.4759 29.844 35.4506 29.7935 35.3937C29.748 35.3427 29.7239 35.2762 29.7263 35.2079C29.7286 35.1396 29.7572 35.0748 29.8061 35.0271C30.2107 34.654 30.3182 33.2569 30.4004 31.8091C26.6324 33.2948 25.6588 34.5719 25.4375 34.9638C25.6272 35.1725 25.8105 35.4253 25.9875 35.7288C26.0697 35.8742 26.2278 36.0702 26.3921 36.2852C26.9042 36.9363 27.5365 37.7519 27.3341 38.4663C27.252 38.7571 27.037 38.991 26.7019 39.1617C28.4089 39.6296 33.0683 40.3566 40.1744 37.2777C42.2797 36.3673 44.1574 35.457 45.8707 34.5908" fill="#F7752A"/>
<path d="M43.3392 41.0712C43.1811 41.166 42.9092 41.3557 42.6753 41.5769C42.9725 41.539 43.3075 41.5011 43.5478 41.5011C43.6426 41.5011 43.7691 41.52 43.9398 41.539C44.161 41.5706 44.4519 41.6086 44.768 41.6212C44.5871 41.4482 44.471 41.2183 44.4392 40.97C44.0472 40.9827 43.6805 41.0206 43.3392 41.0712ZM46.4939 41.3493C46.6962 41.2608 46.8922 41.147 47.0755 41.0016H46.6077C46.5887 41.1281 46.5508 41.2482 46.4939 41.3557M42.3403 52.3309C43.257 52.0401 43.8955 51.5596 44.4582 51.1423C44.5783 51.0475 44.7047 50.959 44.8249 50.8705C44.0662 50.9843 43.1179 51.2056 41.923 51.5343C41.8155 51.5659 41.708 51.5912 41.6006 51.6165L41.8092 52.47C41.9799 52.4384 42.1569 52.3941 42.3403 52.3309ZM16.4005 37.3537C16.7925 38.1377 17.6333 40.2303 17.5764 41.3493C17.5638 41.5959 17.5638 41.8614 17.5638 42.1143C17.5638 42.9109 17.5701 43.6696 17.1655 43.9983C17.2287 44.384 17.5322 44.5294 17.7914 44.58C18.2782 44.6748 18.8408 44.4788 18.9736 44.1627C19.1317 43.8023 19.3024 43.4609 19.4731 43.1259C19.8777 42.3293 20.2949 41.5011 20.5352 40.3441C20.9398 38.3969 19.6374 36.5761 19.4857 36.3738C19.2202 36.0135 17.8546 35.7542 16.4827 35.6088C16.4574 35.6088 16.4384 35.6088 16.4195 35.6025C15.6102 35.5203 14.801 35.4761 14.2257 35.4761C13.7578 35.4761 13.2015 35.7416 12.7969 35.9818C14.5797 36.26 16.0401 36.6267 16.4005 37.3474" fill="white"/>
<path d="M47.2669 28.0286C55.5173 25.4176 58.8301 23.66 59.6014 23.2174C59.3864 22.7117 59.1715 22.1996 58.9502 21.6875C58.9502 21.6875 58.9502 21.6748 58.9439 21.6685C57.5846 18.4822 56.257 15.4159 56.0926 15.1757C55.7069 14.8153 51.4901 14.4107 46.0088 15.1251C42.4494 15.5929 39.851 17.4137 37.7647 18.8805C36.652 19.6644 35.6847 20.3409 34.8312 20.6064C34.7989 20.617 34.7647 20.621 34.7308 20.6181C34.6968 20.6151 34.6639 20.6054 34.6338 20.5895C34.6037 20.5736 34.5771 20.5518 34.5556 20.5253C34.5342 20.4989 34.5182 20.4684 34.5088 20.4357C34.4645 20.2966 34.5404 20.1575 34.6795 20.1133C35.4571 19.873 36.3928 19.2155 37.4676 18.4569C38.6435 17.6287 39.9774 16.693 41.558 15.9407C40.047 15.8648 37.1388 15.8774 35.1916 16.8763C32.0811 18.4758 32.119 20.8024 32.1506 23.0594C32.1696 24.229 32.1886 25.3354 31.7587 26.2837C31.2529 27.3964 31.0948 29.0338 31 30.608C32.334 30.6586 38.7699 30.7218 47.2732 28.0286" fill="#F7752A"/>
<path d="M52.4576 30.6523C53.5514 29.9569 54.6577 29.2425 55.7072 28.5597C55.4417 27.7315 54.8221 26.5176 54.5755 26.0435C52.7611 26.7452 50.4156 27.5797 47.4252 28.5281C40.0346 30.8673 34.174 31.1454 31.8221 31.1454C31.4428 31.1454 31.1583 31.1391 30.9687 31.1328C30.9687 31.2339 30.956 31.3414 30.9497 31.4426C30.8928 32.492 30.8359 33.4214 30.7031 34.1421C31.6578 34.5657 37.2023 36.3802 52.4576 30.6649" fill="#121C57"/>
<path d="M23.3765 35.6723C23.3892 35.7229 23.4271 35.8304 23.4714 35.9568C23.5852 36.2919 23.7812 36.8609 23.9266 37.5247C23.9772 37.6448 24.7105 39.3581 26.2658 38.7955C26.5945 38.6753 26.7842 38.5173 26.8411 38.3276C26.9738 37.8661 26.4049 37.1391 25.9876 36.6017C25.7979 36.3614 25.6399 36.1528 25.5387 35.9821C25.1467 35.2867 24.6789 34.9263 24.268 34.6039C24.0404 34.4269 23.8254 34.2562 23.661 34.0602C23.4145 33.7567 22.4978 33.7883 21.4609 34.4332C22.384 34.6924 23.2501 35.1665 23.3765 35.6723Z" fill="white"/>
<path d="M19.8984 36.0706C20.6381 37.0631 21.3778 38.8017 21.0364 40.4518C20.8341 41.4317 20.518 42.1777 20.1829 42.8605C20.2272 43.0628 20.3473 43.2335 20.5622 43.3537C20.9416 43.5686 21.4094 43.5686 21.5042 43.5244C21.7002 43.4359 22.6232 42.5128 23.3693 40.5909C23.9762 39.023 23.2555 36.9177 22.9836 36.1275C22.933 35.9757 22.8951 35.8682 22.8761 35.7987C22.8192 35.5585 21.9152 34.9831 20.6887 34.7935C20.0501 34.6923 18.7414 34.9831 17.7109 35.2676C19.5127 35.5585 19.7972 35.9441 19.8984 36.0769M41.2925 52.5397L41.0902 51.7242C40.4201 51.8506 39.8068 51.9012 39.2821 51.9075C39.6298 52.2236 40.2683 52.6093 41.2862 52.5397M32.7703 40.6035C32.9789 40.357 33.2128 40.0978 33.5037 39.8512C33.0801 39.9207 32.6755 39.9776 32.2835 40.0156C32.2835 40.2874 32.3024 40.7553 32.3593 41.2105C32.4858 40.9829 32.6122 40.7932 32.7703 40.6035Z" fill="white"/>
<path d="M55.0625 25.8537C55.3217 26.3468 55.8717 27.4342 56.1626 28.2688C57.016 27.7124 57.8253 27.175 58.5586 26.6882C58.2805 25.9422 57.7873 25.1519 57.5597 24.8105C56.8896 25.1077 56.0677 25.4554 55.0688 25.8537" fill="#F7752A"/>
<path d="M62.0531 24.349C62.4197 24.1088 63.3997 23.3248 63.1089 22.838C63.074 22.7793 63.0637 22.7091 63.0802 22.6428C63.0968 22.5765 63.1389 22.5194 63.1974 22.484C63.2561 22.4491 63.3263 22.4388 63.3926 22.4554C63.4589 22.472 63.516 22.5141 63.5514 22.5725C64.1457 23.5651 62.5272 24.6588 62.3376 24.7789C62.2996 24.8042 60.9467 25.7209 58.9931 27.017H58.9868C58.1397 27.5796 57.185 28.2055 56.1735 28.8694C56.1671 28.8757 56.1545 28.882 56.1419 28.8883C55.0671 29.5901 53.9354 30.3171 52.8164 31.0315C55.2378 29.8556 57.6086 28.882 60.2829 28.2624C61.1237 28.0665 61.7622 27.921 62.2554 27.744C62.2877 27.7185 62.328 27.7051 62.3692 27.7061C63.7221 27.2003 63.9118 26.4543 64.2026 23.8053C64.2785 23.1099 64.2785 22.6484 64.0382 22.3639C63.7853 22.0667 63.2227 21.896 62.2617 21.8328C61.4019 21.7759 60.1754 21.8012 59.5621 21.8202C60.1754 23.2553 60.7064 24.5008 60.953 25.0887C61.6295 24.6398 62.0341 24.3617 62.0531 24.349Z" fill="#F7752A"/>
<path d="M36.1334 42.4179C35.9058 42.2409 35.7604 41.9817 35.7224 41.6846C35.1408 41.7288 34.5908 41.8869 34.0977 42.0386C34.3442 42.2978 34.9259 42.6708 36.1334 42.4179Z" fill="white"/>
<path d="M67.3091 41.1788C67.4672 40.2242 67.6189 39.3264 66.9488 38.7195C66.9259 38.6974 66.9066 38.6718 66.8919 38.6437V38.6373C66.8789 38.6096 66.8725 38.5794 66.8729 38.5488V38.5425C66.8729 38.5109 66.8729 38.4793 66.8855 38.454V38.4477C66.8919 38.4287 66.8982 38.4097 66.9108 38.3971C66.9172 38.3844 66.9235 38.3781 66.9361 38.3655C66.9551 38.3402 66.9804 38.3212 67.012 38.3086H67.0183C67.046 38.2957 67.0763 38.2892 67.1068 38.2896H67.1131C67.1448 38.2896 67.1764 38.2896 67.2017 38.3023H67.208C67.2269 38.3086 67.2459 38.3149 67.2585 38.3275C67.3597 38.3908 67.4609 38.3908 67.5557 38.3655C66.8539 37.7269 66.7465 36.7723 66.6453 35.8429C66.5125 34.6481 66.3924 33.5227 65.0837 32.9727C65.0215 32.9459 64.9722 32.8959 64.9463 32.8334C64.9203 32.7708 64.9197 32.7006 64.9446 32.6376C64.9571 32.6062 64.9758 32.5775 64.9995 32.5534C65.0232 32.5293 65.0515 32.5102 65.0828 32.4972C65.114 32.4843 65.1476 32.4777 65.1814 32.4779C65.2152 32.4782 65.2486 32.4852 65.2797 32.4985C65.2797 32.4985 65.678 32.6566 66.0637 32.6376C64.7929 32.1635 64.3061 31.1898 63.8383 30.2415C63.4589 29.4829 63.1049 28.7685 62.3526 28.2627C61.8405 28.4397 61.2019 28.6041 60.399 28.7874C56.3971 29.7168 53.0527 31.4617 49.1772 33.4848C48.8232 33.6681 48.4628 33.8578 48.0898 34.0475C48.2542 34.1233 48.4249 34.2182 48.6145 34.3256C49.2973 34.7113 50.3279 35.2992 52.2182 35.5395C56.1253 36.0389 56.7638 37.6574 56.7891 37.7269C56.8011 37.7585 56.8068 37.7921 56.8056 37.8258C56.8045 37.8595 56.7967 37.8927 56.7825 37.9233C56.7684 37.9539 56.7482 37.9814 56.7233 38.0042C56.6984 38.0269 56.6692 38.0444 56.6373 38.0557C56.6057 38.0683 56.5805 38.0747 56.5488 38.0747C56.4414 38.0747 56.3465 38.0114 56.3086 37.904C56.3086 37.8913 55.708 36.5068 52.1613 36.0516C50.1698 35.7987 49.0824 35.1854 48.368 34.7745C47.8875 34.5027 47.6409 34.3762 47.4007 34.4078C46.9834 34.6228 46.5535 34.844 46.111 35.0653C46.111 35.0653 46.0983 35.0653 46.092 35.0716C44.3787 35.9378 42.4947 36.8482 40.3894 37.7649C38.8089 38.4477 37.3485 38.9534 36.0145 39.3138C36.0714 39.3264 36.1346 39.3454 36.1915 39.3644C36.4634 39.4466 36.6214 39.7374 36.5329 40.0156C36.4634 40.2432 36.2484 40.3886 36.0208 40.3822H35.9829C35.6478 40.3696 35.3317 40.3633 35.0536 40.4075C34.7754 40.4518 34.5288 40.5466 34.2633 40.7047C33.9978 40.8627 33.7196 41.0903 33.4035 41.3179C33.1316 41.5013 32.8029 41.6593 32.4299 41.6909C32.4488 41.7794 32.4678 41.8616 32.4931 41.9375C32.4931 41.9501 32.4931 41.9628 32.4994 41.9754C32.5437 41.8932 32.6259 41.8363 32.727 41.8363C33.0305 41.8363 33.4161 41.7162 33.865 41.5771C34.434 41.4001 35.0788 41.2041 35.7932 41.1725C36.5456 41.1346 37.2347 41.2863 37.8922 41.6404C37.6203 41.1346 37.1651 40.888 37.1335 40.869C37.1034 40.8535 37.0767 40.8322 37.0549 40.8062C37.0331 40.7802 37.0168 40.7501 37.0068 40.7178C36.9967 40.6854 36.9933 40.6513 36.9966 40.6176C36.9999 40.5839 37.0099 40.5511 37.0261 40.5213C37.0956 40.3949 37.2473 40.3443 37.3738 40.4139C37.8163 40.6478 38.4802 41.2547 38.5876 42.1714C38.5876 42.1967 38.594 42.222 38.594 42.2473C38.6192 42.5444 38.5876 42.8732 38.4675 43.2272C37.7658 45.3325 37.4623 46.8561 37.5887 47.6211C37.614 47.7602 37.5192 47.8929 37.3738 47.9182H37.3295C37.2685 47.9189 37.2094 47.8976 37.1629 47.8581C37.1164 47.8186 37.0858 47.7636 37.0766 47.7033C37.0577 47.6085 37.0513 47.501 37.045 47.3935C36.9059 47.6021 36.8174 47.8803 36.9312 48.228C37.045 48.5757 37.456 48.6263 38.1071 48.6832C38.6635 48.7275 39.2894 48.778 39.7572 49.1637C39.8647 49.2522 39.8837 49.4166 39.7952 49.5241C39.7446 49.5873 39.6687 49.6189 39.5929 49.6189C39.536 49.6189 39.4791 49.5999 39.4285 49.562C39.0871 49.2838 38.5687 49.2396 38.0629 49.2016C37.791 49.1763 37.5002 49.1574 37.241 49.0815C37.222 49.2269 37.1968 49.4103 37.1525 49.6063C37.3106 49.5683 37.4749 49.5557 37.6393 49.5683C37.8353 49.5873 38.0186 49.6252 38.2209 49.739L38.2589 49.758C38.3853 49.8275 38.4296 49.9856 38.36 50.112C38.3411 50.1436 38.3158 50.1752 38.2905 50.1942C38.0439 50.3776 37.7847 50.5103 37.5634 50.6557C37.3358 50.8011 37.1209 50.9276 36.9502 51.0793C36.7795 51.2374 36.6531 51.4207 36.5709 51.6609C36.4887 51.9012 36.4697 52.1983 36.4571 52.5271C36.4571 52.565 36.4255 52.5966 36.3875 52.5966C36.3749 52.5966 36.3622 52.5966 36.3496 52.584H36.3369C36.1789 52.4639 36.0461 52.3248 35.945 52.1604C35.8312 51.996 35.768 51.8 35.7363 51.5914C35.6668 51.1678 35.8059 50.6747 36.0777 50.327C36.2105 50.15 36.3686 49.9982 36.5393 49.8781C36.691 49.4672 36.7289 49.0436 36.7416 48.8413C36.6088 48.7338 36.5013 48.5884 36.4381 48.3924C36.1599 47.5516 36.6847 46.913 37.0766 46.6285C37.1778 45.7434 37.4749 44.5485 37.9681 43.0628C38.0502 42.8099 38.0819 42.576 38.0755 42.3674C38.0439 42.3421 38.0123 42.3231 37.9807 42.2979C37.8859 42.3421 37.7847 42.3927 37.6899 42.4369C37.3485 42.5887 37.0197 42.7151 36.71 42.8099H36.6973C36.1789 42.968 35.7363 43.0249 35.3633 43.0249C34.2633 43.0249 33.7512 42.4875 33.5615 42.203C33.2581 42.2852 32.9799 42.3484 32.727 42.3484C32.6914 42.3489 32.6561 42.3418 32.6234 42.3276C32.5907 42.3134 32.5614 42.2925 32.5373 42.2662C32.5373 42.7657 32.2781 43.3537 31.9747 44.0112C31.7344 44.5359 31.4879 45.0796 31.3614 45.6233C31.0896 46.7739 30.9505 48.5821 32.8345 51.0351C32.9609 51.1425 33.7196 51.7305 34.4213 51.2247C34.5351 51.1425 34.6995 51.1678 34.7817 51.2816C34.8639 51.3954 34.8386 51.5598 34.7248 51.642C34.4277 51.8569 34.1116 51.9391 33.8144 51.9391C33.6311 51.9391 33.4604 51.9075 33.296 51.8569C33.492 52.2742 33.7196 52.8053 33.9914 53.4311C35.0662 55.941 36.6973 59.7406 38.8911 62.0925C42.166 65.6139 45.0236 66.0501 51.1308 63.9638C56.3086 62.1936 63.1934 57.8693 64.7866 54.4933C66.2028 51.4903 66.051 47.0079 65.4884 44.0428C65.324 43.8847 65.1786 43.7203 65.0332 43.5496C64.6601 43.1134 64.2682 42.6709 63.5854 42.418C63.1049 43.8215 62.3715 44.9279 61.0945 45.1428C61.1956 45.3072 61.2715 45.4083 61.2715 45.4083C61.3537 45.5221 61.3347 45.6865 61.2146 45.7687C61.1873 45.7891 61.1563 45.8037 61.1233 45.8119C61.0903 45.8201 61.056 45.8215 61.0224 45.8162C60.9888 45.8109 60.9566 45.799 60.9278 45.781C60.8989 45.7631 60.8739 45.7396 60.8542 45.7118C60.8036 45.6486 59.672 44.0933 59.672 42.5697C59.672 41.6151 60.1778 41.0018 60.5887 40.5087C60.8542 40.1926 61.0755 39.9144 61.1324 39.6173C61.2146 39.1557 61.1514 38.7827 60.9491 38.5868C60.7847 38.4224 60.5128 38.3844 60.1461 38.4603H60.045C60.0323 38.4603 60.026 38.4603 60.0134 38.454H59.9944C59.9818 38.454 59.9754 38.4477 59.9691 38.4413C59.9691 38.4413 59.9565 38.4413 59.9502 38.435C59.9438 38.435 59.9375 38.4224 59.9312 38.4161C59.9312 38.4161 59.9185 38.4097 59.9122 38.4034C59.9122 38.4034 59.8996 38.3908 59.8996 38.3844C59.8996 38.3781 59.8869 38.3718 59.8806 38.3655C59.8806 38.3592 59.8743 38.3528 59.868 38.3465C59.868 38.3402 59.8616 38.3339 59.8553 38.3212C59.8553 38.3086 59.849 38.3023 59.8427 38.2896V38.2137C59.8427 35.8619 61.164 34.6797 61.2209 34.6291C61.2735 34.5891 61.3394 34.5706 61.4051 34.5773C61.4709 34.584 61.5316 34.6155 61.575 34.6653C61.6184 34.7152 61.6413 34.7797 61.6389 34.8457C61.6365 34.9118 61.6092 34.9745 61.5623 35.0211C61.5623 35.0211 61.5433 35.0337 61.5244 35.059C61.8341 35.1602 62.2893 35.3878 62.6307 35.8809C63.1555 36.6395 63.2313 37.7459 62.852 39.1747C62.8204 39.2885 62.7193 39.3644 62.6055 39.3644C62.5865 39.3644 62.5612 39.3644 62.5359 39.3581C62.503 39.3495 62.4721 39.3346 62.445 39.314C62.4179 39.2935 62.3952 39.2677 62.3781 39.2383C62.3611 39.2089 62.35 39.1764 62.3457 39.1427C62.3413 39.109 62.3436 39.0747 62.3526 39.0419C62.694 37.7712 62.6434 36.8102 62.2072 36.178C61.8468 35.6533 61.3221 35.5268 61.1703 35.4952C60.8479 35.9631 60.4306 36.7786 60.3737 37.9229C60.8542 37.8913 61.1514 38.062 61.3221 38.2264C61.6508 38.5488 61.7709 39.0736 61.6508 39.7184C61.5749 40.1483 61.2968 40.4834 60.9996 40.8438C60.6077 41.3179 60.203 41.811 60.203 42.576C60.203 42.7657 60.2283 42.9617 60.2663 43.1577C60.595 43.1008 61.2525 42.8795 61.5623 42.007C61.6066 41.8743 61.7583 41.8047 61.891 41.849C62.0238 41.8932 62.0934 42.045 62.0491 42.1777C61.7014 43.1703 60.9427 43.5496 60.399 43.6571C60.5191 44.0301 60.6772 44.3715 60.8289 44.6623C62.7888 44.5169 63.3768 41.8553 63.8952 38.6626C64.382 35.6533 63.5158 34.6544 61.9543 34.0158C61.4042 33.7882 60.8985 33.8009 60.4433 34.0475C59.6657 34.4647 59.0524 35.5901 58.7489 37.139C58.7237 37.2781 58.5846 37.3729 58.4455 37.3413C58.4121 37.335 58.3803 37.3222 58.3519 37.3034C58.3236 37.2847 58.2992 37.2605 58.2804 37.2322C58.2615 37.2039 58.2485 37.1722 58.2421 37.1388C58.2357 37.1054 58.2361 37.0711 58.2432 37.0378C58.5782 35.3182 59.2674 34.0917 60.1967 33.5923C60.7847 33.2762 61.4548 33.2572 62.1503 33.5354C64.2176 34.3825 64.8688 35.8872 64.4073 38.7385C64.2366 39.7753 64.0532 40.9007 63.7624 41.9248C64.578 42.222 65.0395 42.7467 65.4441 43.2146C66.0257 43.8847 66.4936 44.4284 67.935 44.106C66.9614 43.3663 67.1574 42.2157 67.3281 41.1915M33.2075 43.164C33.1606 43.1174 33.1332 43.0547 33.1309 42.9886C33.1285 42.9226 33.1514 42.8581 33.1948 42.8083C33.2382 42.7584 33.2989 42.7269 33.3647 42.7202C33.4304 42.7135 33.4963 42.732 33.5489 42.772C33.5995 42.8163 34.7691 43.7962 36.6973 43.2019C36.8364 43.1577 36.9755 43.2335 37.0197 43.3726C37.064 43.5117 36.9881 43.6508 36.849 43.695C36.3496 43.8468 35.9007 43.91 35.4898 43.91C34.0863 43.91 33.2517 43.2019 33.2075 43.164ZM54.2792 37.2465C54.3171 37.1074 54.4625 37.0315 54.5953 37.0694C54.6459 37.0821 55.8281 37.4361 56.7575 38.7891C57.4782 39.8322 58.4012 39.8891 58.4139 39.8891C58.5593 39.8891 58.6668 40.0156 58.6604 40.161C58.6604 40.3001 58.5403 40.4075 58.4012 40.4075H58.3886C58.338 40.4075 57.1937 40.338 56.3276 39.0862C55.4994 37.885 54.4625 37.5752 54.4499 37.5752C54.4175 37.5662 54.3871 37.5508 54.3607 37.53C54.3342 37.5092 54.3121 37.4834 54.2956 37.454C54.2792 37.4246 54.2687 37.3923 54.2648 37.3588C54.2609 37.3254 54.2636 37.2915 54.2729 37.2591M58.7426 40.9007C58.7679 41.0397 58.6794 41.1788 58.5403 41.2041C58.3886 41.2294 58.2432 41.2484 58.1041 41.2484C56.4983 41.2484 55.4867 39.5477 55.4425 39.4655C55.4084 39.4059 55.3993 39.3353 55.4171 39.269C55.4348 39.2027 55.478 39.1461 55.5373 39.1115C55.6574 39.042 55.8155 39.0799 55.8913 39.2063C55.904 39.2253 56.9535 40.9828 58.4455 40.6984C58.5846 40.6731 58.7237 40.7616 58.7489 40.9007M39.3589 39.4592C39.3147 39.1431 39.498 38.8396 39.7888 38.7322C40.636 38.4161 41.5527 38.3339 42.4188 38.3781C43.2913 38.4161 44.1258 38.5994 44.9287 38.7764C45.738 38.9598 46.5156 39.1621 47.3059 39.3138C48.0961 39.4719 48.8927 39.5667 49.7209 39.5667C49.7525 39.5667 49.7715 39.592 49.7715 39.6173C49.7715 39.6426 49.7589 39.6615 49.7336 39.6678C48.9433 39.946 48.0835 40.0472 47.2426 40.0725C46.3955 40.0914 45.561 40.0345 44.7454 39.9713C43.9298 39.9081 43.1333 39.8701 42.3683 39.8575C41.597 39.8512 40.8636 39.9081 40.1239 40.0219H40.1113C39.7446 40.0788 39.4032 39.8259 39.3463 39.4592M47.4133 51.0793C47.3248 50.8264 47.1984 50.6115 47.015 50.4408C46.838 50.2701 46.6231 50.1373 46.3828 50.0362C46.1616 49.954 45.9024 49.8907 45.6179 49.8591C45.0552 49.7833 44.4419 49.8086 43.835 49.8149C43.2218 49.8149 42.5959 49.8086 41.9573 49.7011H41.9447C41.8631 49.6865 41.7904 49.6407 41.742 49.5735C41.6936 49.5062 41.6733 49.4227 41.6855 49.3407C41.7044 49.2396 41.7677 49.1574 41.8562 49.1131C42.166 48.9614 42.4821 48.8602 42.7982 48.7844C43.1206 48.7085 43.443 48.6579 43.7718 48.6263C44.0373 48.6074 44.3092 48.601 44.5873 48.6137C44.189 48.3102 43.854 47.9751 43.6074 47.7033C43.5758 47.8044 43.5252 47.9056 43.443 47.9941C43.1901 48.266 42.7286 48.3671 41.9889 48.3229C40.851 48.2533 40.4147 48.6516 40.4084 48.6516C40.3597 48.6953 40.2968 48.72 40.2314 48.7212C40.1973 48.7215 40.1635 48.715 40.132 48.7019C40.1005 48.6889 40.0719 48.6696 40.048 48.6453C40.0009 48.5972 39.9744 48.5325 39.9744 48.4651C39.9744 48.3977 40.0009 48.333 40.048 48.2849C40.1049 48.228 40.655 47.7223 42.0206 47.8044C42.716 47.8487 42.9689 47.7412 43.0637 47.6401C43.1143 47.5895 43.1649 47.4947 43.1206 47.2102C42.9942 46.3377 42.4252 45.8699 41.4263 45.8193C41.2809 45.813 41.1734 45.6928 41.1797 45.5474C41.1805 45.5131 41.1882 45.4793 41.2025 45.448C41.2167 45.4168 41.2372 45.3888 41.2626 45.3657C41.2881 45.3427 41.3179 45.325 41.3504 45.3139C41.3829 45.3027 41.4173 45.2983 41.4516 45.3009C42.5832 45.3578 43.3229 45.9078 43.5695 46.8435C43.7212 47.0521 44.619 48.2217 45.7822 48.7338H45.7949C46.1363 48.8033 46.503 48.9171 46.8507 49.1068C47.1731 49.2965 47.4766 49.5494 47.7042 49.8781C47.9318 50.2005 48.0582 50.5862 48.0898 50.9592C48.1151 51.3385 48.0582 51.6989 47.8812 52.034C47.8306 52.1351 47.7042 52.173 47.603 52.1225C47.5658 52.103 47.5355 52.0725 47.5163 52.0351C47.4971 51.9978 47.4898 51.9554 47.4955 51.9138V51.8885C47.5335 51.623 47.4955 51.3259 47.4133 51.0793ZM45.4914 43.0692C44.5684 43.0692 43.8477 42.8289 43.7908 42.8099C43.7586 42.799 43.729 42.7817 43.7037 42.7591C43.6783 42.7366 43.6576 42.7092 43.6429 42.6786C43.6282 42.6481 43.6197 42.6148 43.618 42.5809C43.6162 42.5471 43.6212 42.5131 43.6327 42.4812C43.677 42.3484 43.8224 42.2726 43.9615 42.3231C43.9867 42.3295 46.4144 43.1387 47.8938 41.6593C47.9425 41.6107 48.0084 41.5834 48.0772 41.5834C48.1459 41.5834 48.2119 41.6107 48.2605 41.6593C48.3091 41.7079 48.3365 41.7739 48.3365 41.8427C48.3365 41.9114 48.3091 41.9774 48.2605 42.026C47.426 42.8605 46.3765 43.0755 45.4977 43.0755M47.8306 40.9955C46.5851 42.418 44.6885 42.1588 43.8729 42.0513C43.7339 42.0323 43.6074 42.0134 43.5505 42.0134C43.0953 42.0134 42.147 42.1714 42.1407 42.1714H42.0964C42.0538 42.1711 42.012 42.1602 41.9747 42.1398C41.9373 42.1193 41.9056 42.0899 41.8824 42.0542C41.8593 42.0185 41.8453 41.9776 41.8418 41.9351C41.8383 41.8927 41.8454 41.8501 41.8625 41.811C41.932 41.653 42.0332 41.5076 42.1596 41.3685C42.1027 41.3938 42.0711 41.4128 42.0711 41.4128C42.0332 41.438 41.9889 41.4444 41.9447 41.4444C41.8562 41.4444 41.7677 41.4001 41.7171 41.3179C41.6831 41.2583 41.6739 41.1877 41.6917 41.1214C41.7095 41.0551 41.7527 40.9985 41.8119 40.9639C41.8309 40.9512 42.2482 40.711 43.2218 40.5593C43.6201 40.496 44.0563 40.4581 44.5178 40.4455C44.8402 40.4328 45.169 40.4328 45.4977 40.4455C45.8897 40.4581 46.2311 40.4644 46.5409 40.4708C48.3048 40.5024 48.8295 40.4265 49.2468 40.3696C49.3859 40.3506 49.5186 40.4455 49.5376 40.5909C49.5565 40.73 49.4617 40.8627 49.3163 40.8817C49.0065 40.9259 48.6462 40.9765 47.8243 40.9955M38.9733 50.2638C39.0491 50.1436 39.2009 50.0994 39.3273 50.1752C39.3589 50.1942 39.9911 50.5419 40.7182 49.8844C40.7693 49.8383 40.8367 49.8144 40.9055 49.818C40.9742 49.8215 41.0388 49.8523 41.0849 49.9034C41.131 49.9545 41.1549 50.0219 41.1513 50.0907C41.1478 50.1594 41.1171 50.224 41.0659 50.2701C40.6044 50.6873 40.1555 50.8075 39.8078 50.8075C39.3779 50.8075 39.0871 50.6368 39.0681 50.6241C39.0097 50.5887 38.9676 50.5316 38.951 50.4653C38.9344 50.399 38.9447 50.3288 38.9796 50.2701M37.3232 51.4776C37.3548 51.3385 37.4876 51.25 37.6267 51.2753C37.6456 51.2753 39.536 51.6546 41.7866 51.0351C44.2649 50.3523 45.6748 50.1373 46.661 50.3017C46.8001 50.327 46.8949 50.4597 46.876 50.5988C46.8507 50.7379 46.7179 50.8327 46.5788 50.8138C46.4283 50.7884 46.2762 50.7736 46.1236 50.7695C45.6621 50.8896 45.2512 51.1931 44.777 51.5535C44.1827 52.0023 43.5063 52.5018 42.5074 52.8242C42.2165 52.9191 41.9447 52.976 41.6918 53.0139C41.6728 53.0139 41.6475 53.0202 41.6286 53.0202C41.4389 53.0455 41.2493 53.0645 41.0786 53.0645C39.6118 53.0645 38.8468 52.2173 38.6129 51.9012C37.9744 51.8696 37.5761 51.7874 37.5445 51.7811C37.478 51.7666 37.4197 51.7269 37.382 51.6702C37.3442 51.6136 37.33 51.5445 37.3422 51.4776M41.0722 55.1128C40.8383 55.1128 40.617 55.0875 40.3958 55.037C38.7963 54.6766 38.1704 53.1403 38.1451 53.0708C38.1202 53.007 38.1215 52.9361 38.1487 52.8733C38.176 52.8105 38.2269 52.7611 38.2905 52.7357C38.4233 52.6851 38.575 52.7484 38.6256 52.8811C38.6319 52.9001 39.1819 54.2341 40.5096 54.5312C41.8119 54.822 43.4304 54.0697 45.3081 52.3058C45.3591 52.2633 45.4244 52.2418 45.4907 52.246C45.557 52.2501 45.6192 52.2795 45.6645 52.328C45.7098 52.3766 45.7348 52.4406 45.7344 52.5071C45.7339 52.5735 45.7081 52.6372 45.6621 52.6851C43.9425 54.2973 42.3999 55.1128 41.0659 55.1128M43.3988 55.6313C43.3608 55.7703 43.2154 55.8462 43.0827 55.8083C42.0522 55.5111 40.7624 56.0359 40.7498 56.0422C40.7182 56.0548 40.6866 56.0612 40.6486 56.0612C40.5475 56.0612 40.4527 55.9979 40.4084 55.9031C40.3515 55.7703 40.4147 55.6186 40.5475 55.568C40.6044 55.5427 42.0142 54.9738 43.2218 55.3151C43.3608 55.3531 43.4367 55.4985 43.3988 55.6313ZM47.8685 61.2833C46.4587 62.0166 44.8908 62.4023 43.3798 62.4023C43.1016 62.4023 42.8298 62.3896 42.5516 62.3643C41.0153 62.2126 39.6877 61.4539 38.6066 60.1073C37.7658 59.0515 37.0071 57.8061 36.3686 56.4026C36.3117 56.2698 36.3686 56.1181 36.495 56.0612C36.6278 56.0043 36.7795 56.0612 36.8364 56.1876C37.456 57.5532 38.1893 58.7607 39.0049 59.7849C39.9911 61.024 41.1987 61.7195 42.5959 61.8522C44.2523 62.0103 46.0414 61.6499 47.622 60.8281C49.8347 59.6837 50.3089 57.7871 50.3152 57.7681C50.3468 57.629 50.4859 57.5469 50.625 57.5785C50.7641 57.6101 50.8463 57.7492 50.8147 57.8883C50.7957 57.9768 50.2773 60.0378 47.8559 61.2896M51.1624 59.1337C51.1385 59.1581 51.11 59.1773 51.0785 59.1904C51.0469 59.2034 51.0131 59.21 50.979 59.2096C50.9277 59.2096 50.8776 59.1944 50.835 59.1659C50.7923 59.1375 50.7591 59.097 50.7395 59.0496C50.7198 59.0022 50.7147 58.9501 50.7247 58.8998C50.7347 58.8495 50.7594 58.8033 50.7957 58.767C50.821 58.7417 51.3647 58.1664 51.3647 57.0095C51.3647 56.8641 51.4785 56.7503 51.6239 56.7503C51.7693 56.7503 51.8831 56.8641 51.8831 57.0095C51.8831 58.394 51.194 59.1021 51.1624 59.1274M56.5425 45.8256C54.8735 49.3913 52.2624 49.9856 50.7198 49.9856C49.9675 49.9856 49.468 49.8465 49.4554 49.8402C49.4225 49.8307 49.3919 49.8149 49.3652 49.7935C49.3385 49.7722 49.3162 49.7458 49.2998 49.7158C49.2833 49.6858 49.273 49.6529 49.2693 49.6189C49.2656 49.5849 49.2687 49.5505 49.2784 49.5177C49.2878 49.4849 49.3037 49.4542 49.325 49.4275C49.3464 49.4008 49.3728 49.3786 49.4028 49.3621C49.4327 49.3457 49.4656 49.3353 49.4996 49.3316C49.5336 49.328 49.568 49.331 49.6008 49.3407C49.7715 49.3913 53.7797 50.4977 56.0747 45.6043C56.1379 45.4779 56.2896 45.421 56.4161 45.4779C56.5425 45.5411 56.5994 45.6928 56.5425 45.8193M58.692 41.9881C58.4075 42.1461 58.1231 42.203 57.8575 42.203C57.1874 42.203 56.669 41.83 56.6373 41.811C56.5826 41.7704 56.5459 41.7099 56.5353 41.6425C56.5246 41.5751 56.5409 41.5062 56.5804 41.4507C56.6626 41.3369 56.827 41.3116 56.9408 41.3938C56.9724 41.4191 57.7121 41.9375 58.4392 41.5392C58.5656 41.4697 58.7237 41.5139 58.7869 41.6404C58.8564 41.7668 58.8122 41.9248 58.6857 41.9881M58.8564 37.8724C58.9955 37.8534 59.1283 37.9545 59.1472 38.0936C59.1662 38.2327 59.0651 38.3655 58.926 38.3844C58.8438 38.3971 58.7679 38.4034 58.6857 38.4034C57.7121 38.4034 57.1811 37.5562 57.0293 37.0758C56.9851 36.9367 57.0609 36.7976 57.2 36.7533C57.3391 36.7091 57.4782 36.7849 57.5225 36.924C57.5351 36.9683 57.8828 38.0051 58.8564 37.8787" fill="white"/>
</svg>
